<svg xmlns="http://www.w3.org/2000/svg" width="764.1676635742188" height="1157.9019775390625" viewBox="41.64482116699219 -1207.9019775390625 764.1676635742188 1157.9019775390625"><title>Neo4j Graph Visualization</title><desc>Created using Neo4j (http://www.neo4j.com/)</desc><g class="layer links"><g class="link"><path fill="#DFE1E3" d="M 180.88091092817083 -842.3549275894925 C 180.88091092817083 -792.0373064109995 376.98500264737265 -792.0373064109995 376.98500264737265 -705.1774637947462 L 319.5846154400131 -705.1774637947462 C 319.5846154400131 -755.4950849732393 123.4805237208113 -755.4950849732393 123.4805237208113 -842.3549275894925 Z"/><text font-size="10" font-family="Helvetica Neue, Helvetica, Arial, sans-serif" fill="rgb(107, 174, 214)" x="152.18071732449107" y="-828.3549275894925" text-anchor="end">1.570 </text><text font-size="10" font-family="Helvetica Neue, Helvetica, Arial, sans-serif" fill="rgb(107, 174, 214)" x="152.18071732449107" y="-828.3549275894925" text-anchor="start">rows</text></g><g class="link"><path fill="#DFE1E3" d="M 450.88091092817086 -755.1774637947462 C 450.88091092817086 -714.2619694855567 434.3853898547322 -714.2619694855567 434.3853898547322 -705.1774637947462 L 376.98500264737265 -705.1774637947462 C 376.98500264737265 -746.0929581039358 393.4805237208113 -746.0929581039358 393.4805237208113 -755.1774637947462 Z"/><text font-size="10" font-family="Helvetica Neue, Helvetica, Arial, sans-serif" fill="rgb(107, 174, 214)" x="422.18071732449107" y="-741.1774637947462" text-anchor="end">1.570 </text><text font-size="10" font-family="Helvetica Neue, Helvetica, Arial, sans-serif" fill="rgb(107, 174, 214)" x="422.18071732449107" y="-741.1774637947462" text-anchor="start">rows</text></g><g class="link"><path fill="#DFE1E3" d="M 405.68519625105245 -633.1774637947462 C 405.68519625105245 -579.8598426162532 493.725249607281 -579.8598426162532 493.725249607281 -490 L 436.32486239992147 -490 C 436.32486239992147 -543.317621178493 348.28480904369286 -543.317621178493 348.28480904369286 -633.1774637947462 Z"/><text font-size="10" font-family="Helvetica Neue, Helvetica, Arial, sans-serif" fill="rgb(107, 174, 214)" x="376.98500264737265" y="-619.1774637947462" text-anchor="end">1.570 </text><text font-size="10" font-family="Helvetica Neue, Helvetica, Arial, sans-serif" fill="rgb(107, 174, 214)" x="376.98500264737265" y="-619.1774637947462" text-anchor="start">rows</text></g><g class="link"><path fill="#DFE1E3" d="M 746.4561980183926 -998.3549275894925 C 746.4561980183926 -957.439433280303 743.3603266171685 -957.439433280303 743.3603266171685 -948.3549275894925 L 641.0011080318136 -948.3549275894925 C 641.0011080318136 -989.270421898682 644.0969794330376 -989.270421898682 644.0969794330376 -998.3549275894925 Z"/><text font-size="10" font-family="Helvetica Neue, Helvetica, Arial, sans-serif" fill="rgb(107, 174, 214)" x="695.2765887257151" y="-984.3549275894925" text-anchor="end">616.530 </text><text font-size="10" font-family="Helvetica Neue, Helvetica, Arial, sans-serif" fill="rgb(107, 174, 214)" x="695.2765887257151" y="-984.3549275894925" text-anchor="start">rows</text></g><g class="link"><path fill="#DFE1E3" d="M 720.8809109281708 -778.3549246982637 C 720.8809109281708 -723.4950835276248 675.6851962510525 -723.4950835276248 675.6851962510525 -705.1774637947462 L 618.2848090436929 -705.1774637947462 C 618.2848090436929 -760.037304965385 663.4805237208113 -760.037304965385 663.4805237208113 -778.3549246982637 Z"/><text font-size="10" font-family="Helvetica Neue, Helvetica, Arial, sans-serif" fill="rgb(107, 174, 214)" x="692.1807173244911" y="-764.3549246982637" text-anchor="end">1.570 </text><text font-size="10" font-family="Helvetica Neue, Helvetica, Arial, sans-serif" fill="rgb(107, 174, 214)" x="692.1807173244911" y="-764.3549246982637" text-anchor="start">rows</text></g><g class="link"><path fill="#DFE1E3" d="M 675.6851962510524 -540 C 675.6851962510524 -499.0845056908105 551.1256368146405 -499.0845056908105 551.1256368146405 -490 L 493.725249607281 -490 C 493.725249607281 -530.9154943091895 618.2848090436929 -530.9154943091895 618.2848090436929 -540 Z"/><text font-size="10" font-family="Helvetica Neue, Helvetica, Arial, sans-serif" fill="rgb(107, 174, 214)" x="646.9850026473727" y="-526" text-anchor="end">1.570 </text><text font-size="10" font-family="Helvetica Neue, Helvetica, Arial, sans-serif" fill="rgb(107, 174, 214)" x="646.9850026473727" y="-526" text-anchor="start">rows</text></g><g class="link"><path fill="#DFE1E3" d="M 522.4254432109608 -404 C 522.4254432109608 -363.0845056908105 510.76826345783076 -363.0845056908105 510.76826345783076 -354 L 453.3678762504712 -354 C 453.3678762504712 -394.9154943091895 465.0250560036012 -394.9154943091895 465.0250560036012 -404 Z"/><text font-size="10" font-family="Helvetica Neue, Helvetica, Arial, sans-serif" fill="rgb(107, 174, 214)" x="493.725249607281" y="-390" text-anchor="end">1.570 </text><text font-size="10" font-family="Helvetica Neue, Helvetica, Arial, sans-serif" fill="rgb(107, 174, 214)" x="493.725249607281" y="-390" text-anchor="start">rows</text></g><g class="link"><path fill="#DFE1E3" d="M 483.068069854151 -268 C 483.068069854151 -242.3633802276324 476.04078284453084 -242.3633802276324 476.04078284453084 -218 L 474.04078284453084 -218 C 474.04078284453084 -243.6366197723676 481.068069854151 -243.6366197723676 481.068069854151 -268 Z"/><text font-size="10" font-family="Helvetica Neue, Helvetica, Arial, sans-serif" fill="rgb(107, 174, 214)" x="482.068069854151" y="-254" text-anchor="end">0 </text><text font-size="10" font-family="Helvetica Neue, Helvetica, Arial, sans-serif" fill="rgb(107, 174, 214)" x="482.068069854151" y="-254" text-anchor="start">rows</text></g><g class="link"><path fill="#DFE1E3" d="M 476.04078284453084 -118 C 476.04078284453084 -92.36338022763242 472.74904965767314 -92.36338022763242 472.74904965767314 -68 L 470.74904965767314 -68 C 470.74904965767314 -93.63661977236758 474.04078284453084 -93.63661977236758 474.04078284453084 -118 Z"/><text font-size="10" font-family="Helvetica Neue, Helvetica, Arial, sans-serif" fill="rgb(107, 174, 214)" x="475.04078284453084" y="-104" text-anchor="end">0 </text><text font-size="10" font-family="Helvetica Neue, Helvetica, Arial, sans-serif" fill="rgb(107, 174, 214)" x="475.04078284453084" y="-104" text-anchor="start">rows</text></g></g><g class="layer operators"><g class="operator" transform="translate(361.7490539550781, -68)"><rect class="background" width="220" height="18" rx="4" ry="4" fill="rgb(255, 255, 255)"/><g class="header" pointer-events="all"><path class="banner" d="M 216 0 A 4 4 0 0 1 220 4 L 220 14 A 4 4 0 0 1 216 18 L 4 18 A 4 4 0 0 1 0 14 L 0 4 A 4 4 0 0 1 4 0 Z" style="fill: rgb(198, 219, 239);"/><text class="title" font-size="11" font-family="Helvetica Neue, Helvetica, Arial, sans-serif" x="18" y="13" fill="#000000">Result</text></g><path class="cost" fill="#F25A29" d="M 216 18 A 4 4 0 0 1 216 18 L 4 18 A 4 4 0 0 1 4 18 Z"/><rect class="b-outline" width="220" rx="4" ry="4" fill="none" stroke-width="1" style="stroke: rgb(139, 153, 167);" height="18"/></g><g class="operator" transform="translate(365.040771484375, -218)"><rect class="background" width="220" height="100" rx="4" ry="4" fill="rgb(255, 255, 255)"/><g class="header" pointer-events="all"><path class="banner" d="M 216 0 A 4 4 0 0 1 220 4 L 220 14 A 4 4 0 0 1 220 18 L 0 18 A 4 4 0 0 1 0 14 L 0 4 A 4 4 0 0 1 4 0 Z" style="fill: rgb(198, 219, 239);"/><path class="expand" fill="#000000" d="M -5 -10 L 8.66 0 L -5 10 Z" transform="translate(9, 9) rotate(90) scale(0.5,0.5)"/><text class="title" font-size="11" font-family="Helvetica Neue, Helvetica, Arial, sans-serif" x="18" y="13" fill="#000000">ProduceResults@neo4j</text></g><path class="cost" fill="#F25A29" d="M 216 100 A 4 4 0 0 1 216 100 L 4 100 A 4 4 0 0 1 4 100 Z"/><rect class="b-outline" width="220" rx="4" ry="4" fill="none" stroke-width="1" style="stroke: rgb(139, 153, 167);" height="100"/><g class="detail identifiers" transform="translate(0, 32)" font-family="'Fira Code',Monaco,'Courier New',Terminal,monospace"><text font-size="10" x="3" text-anchor="start" fill="black" font-family="Helvetica Neue, Helvetica, Arial, sans-serif">anon_4, anon_0, anon_3, p, n, </text></g><g class="detail identifiers" transform="translate(0, 46)" font-family="'Fira Code',Monaco,'Courier New',Terminal,monospace"><text font-size="10" x="3" text-anchor="start" fill="black" font-family="Helvetica Neue, Helvetica, Arial, sans-serif">csvLine</text></g><g class="detail padding" transform="translate(0, 60)" font-family="'Helvetica Neue',Helvetica,Arial,sans-serif"><text font-size="10" x="3" text-anchor="start" fill="black" font-family="Helvetica Neue, Helvetica, Arial, sans-serif"/><path class="divider" visibility="visible" d="M 0 -6 L 220 -6" stroke="#DFE1E3"/></g><g class="detail global-memory" transform="translate(0, 66)" font-family="'Helvetica Neue',Helvetica,Arial,sans-serif"><text font-size="10" x="110" text-anchor="end" fill="black" font-family="Helvetica Neue, Helvetica, Arial, sans-serif">105.000 </text><text font-size="10" x="110" text-anchor="start" fill="black" font-family="Helvetica Neue, Helvetica, Arial, sans-serif">total memory (bytes)</text></g><g class="detail estimated-rows" transform="translate(0, 80)" font-family="'Helvetica Neue',Helvetica,Arial,sans-serif"><text font-size="10" x="110" text-anchor="end" fill="black" font-family="Helvetica Neue, Helvetica, Arial, sans-serif">10 </text><text font-size="10" x="110" text-anchor="start" fill="black" font-family="Helvetica Neue, Helvetica, Arial, sans-serif">estimated rows</text></g><g class="detail db-hits" transform="translate(0, 94)" font-family="'Helvetica Neue',Helvetica,Arial,sans-serif"><text font-size="10" x="110" text-anchor="end" fill="black" font-family="Helvetica Neue, Helvetica, Arial, sans-serif">0 </text><text font-size="10" x="110" text-anchor="start" fill="black" font-family="Helvetica Neue, Helvetica, Arial, sans-serif">db hits</text></g></g><g class="operator" transform="translate(372.0680847167969, -354)"><rect class="background" width="220" height="86" rx="4" ry="4" fill="rgb(255, 255, 255)"/><g class="header" pointer-events="all"><path class="banner" d="M 216 0 A 4 4 0 0 1 220 4 L 220 14 A 4 4 0 0 1 220 18 L 0 18 A 4 4 0 0 1 0 14 L 0 4 A 4 4 0 0 1 4 0 Z" style="fill: rgb(198, 219, 239);"/><path class="expand" fill="#000000" d="M -5 -10 L 8.66 0 L -5 10 Z" transform="translate(9, 9) rotate(90) scale(0.5,0.5)"/><text class="title" font-size="11" font-family="Helvetica Neue, Helvetica, Arial, sans-serif" x="18" y="13" fill="#000000">EmptyResult@neo4j</text></g><path class="cost" fill="#F25A29" d="M 216 86 A 4 4 0 0 1 216 86 L 4 86 A 4 4 0 0 1 4 86 Z"/><rect class="b-outline" width="220" rx="4" ry="4" fill="none" stroke-width="1" style="stroke: rgb(139, 153, 167);" height="86"/><g class="detail identifiers" transform="translate(0, 32)" font-family="'Fira Code',Monaco,'Courier New',Terminal,monospace"><text font-size="10" x="3" text-anchor="start" fill="black" font-family="Helvetica Neue, Helvetica, Arial, sans-serif">anon_4, anon_0, anon_3, p, n, </text></g><g class="detail identifiers" transform="translate(0, 46)" font-family="'Fira Code',Monaco,'Courier New',Terminal,monospace"><text font-size="10" x="3" text-anchor="start" fill="black" font-family="Helvetica Neue, Helvetica, Arial, sans-serif">csvLine</text></g><g class="detail padding" transform="translate(0, 60)" font-family="'Helvetica Neue',Helvetica,Arial,sans-serif"><text font-size="10" x="3" text-anchor="start" fill="black" font-family="Helvetica Neue, Helvetica, Arial, sans-serif"/><path class="divider" visibility="visible" d="M 0 -6 L 220 -6" stroke="#DFE1E3"/></g><g class="detail estimated-rows" transform="translate(0, 66)" font-family="'Helvetica Neue',Helvetica,Arial,sans-serif"><text font-size="10" x="110" text-anchor="end" fill="black" font-family="Helvetica Neue, Helvetica, Arial, sans-serif">10 </text><text font-size="10" x="110" text-anchor="start" fill="black" font-family="Helvetica Neue, Helvetica, Arial, sans-serif">estimated rows</text></g><g class="detail db-hits" transform="translate(0, 80)" font-family="'Helvetica Neue',Helvetica,Arial,sans-serif"><text font-size="10" x="110" text-anchor="end" fill="black" font-family="Helvetica Neue, Helvetica, Arial, sans-serif">0 </text><text font-size="10" x="110" text-anchor="start" fill="black" font-family="Helvetica Neue, Helvetica, Arial, sans-serif">db hits</text></g></g><g class="operator" transform="translate(383.7252502441406, -490)"><rect class="background" width="220" height="86" rx="4" ry="4" fill="rgb(255, 255, 255)"/><g class="header" pointer-events="all"><path class="banner" d="M 216 0 A 4 4 0 0 1 220 4 L 220 14 A 4 4 0 0 1 220 18 L 0 18 A 4 4 0 0 1 0 14 L 0 4 A 4 4 0 0 1 4 0 Z" style="fill: rgb(33, 113, 181);"/><path class="expand" fill="#FFFFFF" d="M -5 -10 L 8.66 0 L -5 10 Z" transform="translate(9, 9) rotate(90) scale(0.5,0.5)"/><text class="title" font-size="11" font-family="Helvetica Neue, Helvetica, Arial, sans-serif" x="18" y="13" fill="#FFFFFF">Apply@neo4j</text></g><path class="cost" fill="#F25A29" d="M 216 86 A 4 4 0 0 1 216 86 L 4 86 A 4 4 0 0 1 4 86 Z"/><rect class="b-outline" width="220" rx="4" ry="4" fill="none" stroke-width="1" style="stroke: rgb(23, 79, 127);" height="86"/><g class="detail identifiers" transform="translate(0, 32)" font-family="'Fira Code',Monaco,'Courier New',Terminal,monospace"><text font-size="10" x="3" text-anchor="start" fill="black" font-family="Helvetica Neue, Helvetica, Arial, sans-serif">anon_4, anon_0, anon_3, p, n, </text></g><g class="detail identifiers" transform="translate(0, 46)" font-family="'Fira Code',Monaco,'Courier New',Terminal,monospace"><text font-size="10" x="3" text-anchor="start" fill="black" font-family="Helvetica Neue, Helvetica, Arial, sans-serif">csvLine</text></g><g class="detail padding" transform="translate(0, 60)" font-family="'Helvetica Neue',Helvetica,Arial,sans-serif"><text font-size="10" x="3" text-anchor="start" fill="black" font-family="Helvetica Neue, Helvetica, Arial, sans-serif"/><path class="divider" visibility="visible" d="M 0 -6 L 220 -6" stroke="#DFE1E3"/></g><g class="detail estimated-rows" transform="translate(0, 66)" font-family="'Helvetica Neue',Helvetica,Arial,sans-serif"><text font-size="10" x="110" text-anchor="end" fill="black" font-family="Helvetica Neue, Helvetica, Arial, sans-serif">10 </text><text font-size="10" x="110" text-anchor="start" fill="black" font-family="Helvetica Neue, Helvetica, Arial, sans-serif">estimated rows</text></g><g class="detail db-hits" transform="translate(0, 80)" font-family="'Helvetica Neue',Helvetica,Arial,sans-serif"><text font-size="10" x="110" text-anchor="end" fill="black" font-family="Helvetica Neue, Helvetica, Arial, sans-serif">0 </text><text font-size="10" x="110" text-anchor="start" fill="black" font-family="Helvetica Neue, Helvetica, Arial, sans-serif">db hits</text></g></g><g class="operator" transform="translate(266.9850158691406, -705.177490234375)"><rect class="background" width="220" height="72" rx="4" ry="4" fill="rgb(255, 255, 255)"/><g class="header" pointer-events="all"><path class="banner" d="M 216 0 A 4 4 0 0 1 220 4 L 220 14 A 4 4 0 0 1 220 18 L 0 18 A 4 4 0 0 1 0 14 L 0 4 A 4 4 0 0 1 4 0 Z" style="fill: rgb(33, 113, 181);"/><path class="expand" fill="#FFFFFF" d="M -5 -10 L 8.66 0 L -5 10 Z" transform="translate(9, 9) rotate(90) scale(0.5,0.5)"/><text class="title" font-size="11" font-family="Helvetica Neue, Helvetica, Arial, sans-serif" x="18" y="13" fill="#FFFFFF">Apply@neo4j</text></g><path class="cost" fill="#F25A29" d="M 216 72 A 4 4 0 0 1 216 72 L 4 72 A 4 4 0 0 1 4 72 Z"/><rect class="b-outline" width="220" rx="4" ry="4" fill="none" stroke-width="1" style="stroke: rgb(23, 79, 127);" height="72"/><g class="detail identifiers" transform="translate(0, 32)" font-family="'Fira Code',Monaco,'Courier New',Terminal,monospace"><text font-size="10" x="3" text-anchor="start" fill="black" font-family="Helvetica Neue, Helvetica, Arial, sans-serif">csvLine, p, n</text></g><g class="detail padding" transform="translate(0, 46)" font-family="'Helvetica Neue',Helvetica,Arial,sans-serif"><text font-size="10" x="3" text-anchor="start" fill="black" font-family="Helvetica Neue, Helvetica, Arial, sans-serif"/><path class="divider" visibility="visible" d="M 0 -6 L 220 -6" stroke="#DFE1E3"/></g><g class="detail estimated-rows" transform="translate(0, 52)" font-family="'Helvetica Neue',Helvetica,Arial,sans-serif"><text font-size="10" x="110" text-anchor="end" fill="black" font-family="Helvetica Neue, Helvetica, Arial, sans-serif">10 </text><text font-size="10" x="110" text-anchor="start" fill="black" font-family="Helvetica Neue, Helvetica, Arial, sans-serif">estimated rows</text></g><g class="detail db-hits" transform="translate(0, 66)" font-family="'Helvetica Neue',Helvetica,Arial,sans-serif"><text font-size="10" x="110" text-anchor="end" fill="black" font-family="Helvetica Neue, Helvetica, Arial, sans-serif">0 </text><text font-size="10" x="110" text-anchor="start" fill="black" font-family="Helvetica Neue, Helvetica, Arial, sans-serif">db hits</text></g></g><g class="operator" transform="translate(42.18071746826172, -948.3549194335938)"><rect class="background" width="220" height="106" rx="4" ry="4" fill="rgb(255, 255, 255)"/><g class="header" pointer-events="all"><path class="banner" d="M 216 0 A 4 4 0 0 1 220 4 L 220 14 A 4 4 0 0 1 220 18 L 0 18 A 4 4 0 0 1 0 14 L 0 4 A 4 4 0 0 1 4 0 Z" style="fill: rgb(66, 146, 198);"/><path class="expand" fill="#FFFFFF" d="M -5 -10 L 8.66 0 L -5 10 Z" transform="translate(9, 9) rotate(90) scale(0.5,0.5)"/><text class="title" font-size="11" font-family="Helvetica Neue, Helvetica, Arial, sans-serif" x="18" y="13" fill="#FFFFFF">LoadCSV@neo4j</text></g><path class="cost" fill="#F25A29" d="M 216 106 A 4 4 0 0 1 216 106 L 4 106 A 4 4 0 0 1 4 106 Z"/><rect class="b-outline" width="220" rx="4" ry="4" fill="none" stroke-width="1" style="stroke: rgb(46, 102, 139);" height="106"/><g class="detail identifiers" transform="translate(0, 32)" font-family="'Fira Code',Monaco,'Courier New',Terminal,monospace"><text font-size="10" x="3" text-anchor="start" fill="black" font-family="Helvetica Neue, Helvetica, Arial, sans-serif">csvLine</text></g><g class="detail padding" transform="translate(0, 46)" font-family="'Helvetica Neue',Helvetica,Arial,sans-serif"><text font-size="10" x="3" text-anchor="start" fill="black" font-family="Helvetica Neue, Helvetica, Arial, sans-serif"/><path class="divider" visibility="visible" d="M 0 -6 L 220 -6" stroke="#DFE1E3"/></g><g class="detail expression" transform="translate(0, 52)" font-family="'Fira Code',Monaco,'Courier New',Terminal,monospace"><text font-size="10" x="3" text-anchor="start" fill="black" font-family="Helvetica Neue, Helvetica, Arial, sans-serif">csvLine</text></g><g class="detail padding" transform="translate(0, 66)" font-family="'Helvetica Neue',Helvetica,Arial,sans-serif"><text font-size="10" x="3" text-anchor="start" fill="black" font-family="Helvetica Neue, Helvetica, Arial, sans-serif"/><path class="divider" visibility="visible" d="M 0 -6 L 220 -6" stroke="#DFE1E3"/></g><g class="detail operator-memory" transform="translate(0, 72)" font-family="'Helvetica Neue',Helvetica,Arial,sans-serif"><text font-size="10" x="110" text-anchor="end" fill="black" font-family="Helvetica Neue, Helvetica, Arial, sans-serif">72 </text><text font-size="10" x="110" text-anchor="start" fill="black" font-family="Helvetica Neue, Helvetica, Arial, sans-serif">memory (bytes)</text></g><g class="detail estimated-rows" transform="translate(0, 86)" font-family="'Helvetica Neue',Helvetica,Arial,sans-serif"><text font-size="10" x="110" text-anchor="end" fill="black" font-family="Helvetica Neue, Helvetica, Arial, sans-serif">10 </text><text font-size="10" x="110" text-anchor="start" fill="black" font-family="Helvetica Neue, Helvetica, Arial, sans-serif">estimated rows</text></g><g class="detail db-hits" transform="translate(0, 100)" font-family="'Helvetica Neue',Helvetica,Arial,sans-serif"><text font-size="10" x="110" text-anchor="end" fill="black" font-family="Helvetica Neue, Helvetica, Arial, sans-serif">0 </text><text font-size="10" x="110" text-anchor="start" fill="black" font-family="Helvetica Neue, Helvetica, Arial, sans-serif">db hits</text></g></g><g class="operator" transform="translate(312.18072509765625, -948.3549194335938)"><rect class="background" width="220" height="193.1774637947463" rx="4" ry="4" fill="rgb(255, 255, 255)"/><g class="header" pointer-events="all"><path class="banner" d="M 216 0 A 4 4 0 0 1 220 4 L 220 14 A 4 4 0 0 1 220 18 L 0 18 A 4 4 0 0 1 0 14 L 0 4 A 4 4 0 0 1 4 0 Z" style="fill: rgb(158, 202, 225);"/><path class="expand" fill="#000000" d="M -5 -10 L 8.66 0 L -5 10 Z" transform="translate(9, 9) rotate(90) scale(0.5,0.5)"/><text class="title" font-size="11" font-family="Helvetica Neue, Helvetica, Arial, sans-serif" x="18" y="13" fill="#000000">MultiNodeIndexSeek@neo4j</text></g><path class="cost" fill="#F25A29" d="M 0 162 L 220 162 L 220 189.1774637947463 A 4 4 0 0 1 216 193.1774637947463 L 4 193.1774637947463 A 4 4 0 0 1 0 189.1774637947463 Z"/><text class="cost" font-size="10" font-family="Helvetica Neue, Helvetica, Arial, sans-serif" fill="white" x="110" text-anchor="end" y="176">6.280 </text><text class="cost" font-size="10" font-family="Helvetica Neue, Helvetica, Arial, sans-serif" fill="white" x="110" text-anchor="start" y="176">db hits</text><rect class="b-outline" width="220" rx="4" ry="4" fill="none" stroke-width="1" style="stroke: rgb(111, 141, 158);" height="193.1774637947463"/><g class="detail identifiers" transform="translate(0, 32)" font-family="'Fira Code',Monaco,'Courier New',Terminal,monospace"><text font-size="10" x="3" text-anchor="start" fill="black" font-family="Helvetica Neue, Helvetica, Arial, sans-serif">csvLine, p, n</text></g><g class="detail padding" transform="translate(0, 46)" font-family="'Helvetica Neue',Helvetica,Arial,sans-serif"><text font-size="10" x="3" text-anchor="start" fill="black" font-family="Helvetica Neue, Helvetica, Arial, sans-serif"/><path class="divider" visibility="visible" d="M 0 -6 L 220 -6" stroke="#DFE1E3"/></g><g class="detail expression" transform="translate(0, 52)" font-family="'Fira Code',Monaco,'Courier New',Terminal,monospace"><text font-size="10" x="3" text-anchor="start" fill="black" font-family="Helvetica Neue, Helvetica, Arial, sans-serif">UNIQUE p:Country(name) WHERE name =</text></g><g class="detail expression" transform="translate(0, 66)" font-family="'Fira Code',Monaco,'Courier New',Terminal,monospace"><text font-size="10" x="3" text-anchor="start" fill="black" font-family="Helvetica Neue, Helvetica, Arial, sans-serif"> csvLine.Country1, UNIQUE n:Country</text></g><g class="detail expression" transform="translate(0, 80)" font-family="'Fira Code',Monaco,'Courier New',Terminal,monospace"><text font-size="10" x="3" text-anchor="start" fill="black" font-family="Helvetica Neue, Helvetica, Arial, sans-serif">(name) WHERE name = csvLine.</text></g><g class="detail expression" transform="translate(0, 94)" font-family="'Fira Code',Monaco,'Courier New',Terminal,monospace"><text font-size="10" x="3" text-anchor="start" fill="black" font-family="Helvetica Neue, Helvetica, Arial, sans-serif">Country2</text></g><g class="detail padding" transform="translate(0, 108)" font-family="'Helvetica Neue',Helvetica,Arial,sans-serif"><text font-size="10" x="3" text-anchor="start" fill="black" font-family="Helvetica Neue, Helvetica, Arial, sans-serif"/><path class="divider" visibility="visible" d="M 0 -6 L 220 -6" stroke="#DFE1E3"/></g><g class="detail operator-memory" transform="translate(0, 114)" font-family="'Helvetica Neue',Helvetica,Arial,sans-serif"><text font-size="10" x="110" text-anchor="end" fill="black" font-family="Helvetica Neue, Helvetica, Arial, sans-serif">50.872 </text><text font-size="10" x="110" text-anchor="start" fill="black" font-family="Helvetica Neue, Helvetica, Arial, sans-serif">memory (bytes)</text></g><g class="detail pagecache-hits" transform="translate(0, 128)" font-family="'Helvetica Neue',Helvetica,Arial,sans-serif"><text font-size="10" x="110" text-anchor="end" fill="black" font-family="Helvetica Neue, Helvetica, Arial, sans-serif">3.140 </text><text font-size="10" x="110" text-anchor="start" fill="black" font-family="Helvetica Neue, Helvetica, Arial, sans-serif">pagecache hits</text></g><g class="detail pagecache-misses" transform="translate(0, 142)" font-family="'Helvetica Neue',Helvetica,Arial,sans-serif"><text font-size="10" x="110" text-anchor="end" fill="black" font-family="Helvetica Neue, Helvetica, Arial, sans-serif">0 </text><text font-size="10" x="110" text-anchor="start" fill="black" font-family="Helvetica Neue, Helvetica, Arial, sans-serif">pagecache misses</text></g><g class="detail estimated-rows" transform="translate(0, 156)" font-family="'Helvetica Neue',Helvetica,Arial,sans-serif"><text font-size="10" x="110" text-anchor="end" fill="black" font-family="Helvetica Neue, Helvetica, Arial, sans-serif">10 </text><text font-size="10" x="110" text-anchor="start" fill="black" font-family="Helvetica Neue, Helvetica, Arial, sans-serif">estimated rows</text></g></g><g class="operator" transform="translate(536.9849853515625, -705.177490234375)"><rect class="background" width="220" height="165.1774637947463" rx="4" ry="4" fill="rgb(255, 255, 255)"/><g class="header" pointer-events="all"><path class="banner" d="M 216 0 A 4 4 0 0 1 220 4 L 220 14 A 4 4 0 0 1 220 18 L 0 18 A 4 4 0 0 1 0 14 L 0 4 A 4 4 0 0 1 4 0 Z" style="fill: rgb(66, 146, 198);"/><path class="expand" fill="#FFFFFF" d="M -5 -10 L 8.66 0 L -5 10 Z" transform="translate(9, 9) rotate(90) scale(0.5,0.5)"/><text class="title" font-size="11" font-family="Helvetica Neue, Helvetica, Arial, sans-serif" x="18" y="13" fill="#FFFFFF">LockingMerge@neo4j</text></g><path class="cost" fill="#F25A29" d="M 0 134 L 220 134 L 220 161.1774637947463 A 4 4 0 0 1 216 165.1774637947463 L 4 165.1774637947463 A 4 4 0 0 1 0 161.1774637947463 Z"/><text class="cost" font-size="10" font-family="Helvetica Neue, Helvetica, Arial, sans-serif" fill="white" x="110" text-anchor="end" y="148">6.280 </text><text class="cost" font-size="10" font-family="Helvetica Neue, Helvetica, Arial, sans-serif" fill="white" x="110" text-anchor="start" y="148">db hits</text><rect class="b-outline" width="220" rx="4" ry="4" fill="none" stroke-width="1" style="stroke: rgb(46, 102, 139);" height="165.1774637947463"/><g class="detail identifiers" transform="translate(0, 32)" font-family="'Fira Code',Monaco,'Courier New',Terminal,monospace"><text font-size="10" x="3" text-anchor="start" fill="black" font-family="Helvetica Neue, Helvetica, Arial, sans-serif">anon_4, anon_0, anon_3, p, n, </text></g><g class="detail identifiers" transform="translate(0, 46)" font-family="'Fira Code',Monaco,'Courier New',Terminal,monospace"><text font-size="10" x="3" text-anchor="start" fill="black" font-family="Helvetica Neue, Helvetica, Arial, sans-serif">csvLine</text></g><g class="detail padding" transform="translate(0, 60)" font-family="'Helvetica Neue',Helvetica,Arial,sans-serif"><text font-size="10" x="3" text-anchor="start" fill="black" font-family="Helvetica Neue, Helvetica, Arial, sans-serif"/><path class="divider" visibility="visible" d="M 0 -6 L 220 -6" stroke="#DFE1E3"/></g><g class="detail expression" transform="translate(0, 66)" font-family="'Fira Code',Monaco,'Courier New',Terminal,monospace"><text font-size="10" x="3" text-anchor="start" fill="black" font-family="Helvetica Neue, Helvetica, Arial, sans-serif">CREATE (p)-[anon_0:VOTE {year: </text></g><g class="detail expression" transform="translate(0, 80)" font-family="'Fira Code',Monaco,'Courier New',Terminal,monospace"><text font-size="10" x="3" text-anchor="start" fill="black" font-family="Helvetica Neue, Helvetica, Arial, sans-serif">toInteger(csvLine.year), score: </text></g><g class="detail expression" transform="translate(0, 94)" font-family="'Fira Code',Monaco,'Courier New',Terminal,monospace"><text font-size="10" x="3" text-anchor="start" fill="black" font-family="Helvetica Neue, Helvetica, Arial, sans-serif">toFloat(csvLine.score)}]-&gt;(n), LOCK</text></g><g class="detail expression" transform="translate(0, 108)" font-family="'Fira Code',Monaco,'Courier New',Terminal,monospace"><text font-size="10" x="3" text-anchor="start" fill="black" font-family="Helvetica Neue, Helvetica, Arial, sans-serif">(p, n)</text></g><g class="detail padding" transform="translate(0, 122)" font-family="'Helvetica Neue',Helvetica,Arial,sans-serif"><text font-size="10" x="3" text-anchor="start" fill="black" font-family="Helvetica Neue, Helvetica, Arial, sans-serif"/><path class="divider" visibility="visible" d="M 0 -6 L 220 -6" stroke="#DFE1E3"/></g><g class="detail estimated-rows" transform="translate(0, 128)" font-family="'Helvetica Neue',Helvetica,Arial,sans-serif"><text font-size="10" x="110" text-anchor="end" fill="black" font-family="Helvetica Neue, Helvetica, Arial, sans-serif">10 </text><text font-size="10" x="110" text-anchor="start" fill="black" font-family="Helvetica Neue, Helvetica, Arial, sans-serif">estimated rows</text></g></g><g class="operator" transform="translate(582.1807250976562, -948.3549194335938)"><rect class="background" width="220" height="170.00000289122875" rx="4" ry="4" fill="rgb(255, 255, 255)"/><g class="header" pointer-events="all"><path class="banner" d="M 216 0 A 4 4 0 0 1 220 4 L 220 14 A 4 4 0 0 1 220 18 L 0 18 A 4 4 0 0 1 0 14 L 0 4 A 4 4 0 0 1 4 0 Z" style="fill: rgb(33, 113, 181);"/><path class="expand" fill="#FFFFFF" d="M -5 -10 L 8.66 0 L -5 10 Z" transform="translate(9, 9) rotate(90) scale(0.5,0.5)"/><text class="title" font-size="11" font-family="Helvetica Neue, Helvetica, Arial, sans-serif" x="18" y="13" fill="#FFFFFF">Filter@neo4j</text></g><path class="cost" fill="#F25A29" d="M 0 120 L 220 120 L 220 166.00000289122875 A 4 4 0 0 1 216 170.00000289122875 L 4 170.00000289122875 A 4 4 0 0 1 0 166.00000289122875 Z"/><text class="cost" font-size="10" font-family="Helvetica Neue, Helvetica, Arial, sans-serif" fill="white" x="110" text-anchor="end" y="134">1.233.060 </text><text class="cost" font-size="10" font-family="Helvetica Neue, Helvetica, Arial, sans-serif" fill="white" x="110" text-anchor="start" y="134">db hits</text><rect class="b-outline" width="220" rx="4" ry="4" fill="none" stroke-width="1" style="stroke: rgb(23, 79, 127);" height="170.00000289122875"/><g class="detail identifiers" transform="translate(0, 32)" font-family="'Fira Code',Monaco,'Courier New',Terminal,monospace"><text font-size="10" x="3" text-anchor="start" fill="black" font-family="Helvetica Neue, Helvetica, Arial, sans-serif">anon_4, anon_0, anon_3, p, n, </text></g><g class="detail identifiers" transform="translate(0, 46)" font-family="'Fira Code',Monaco,'Courier New',Terminal,monospace"><text font-size="10" x="3" text-anchor="start" fill="black" font-family="Helvetica Neue, Helvetica, Arial, sans-serif">csvLine</text></g><g class="detail padding" transform="translate(0, 60)" font-family="'Helvetica Neue',Helvetica,Arial,sans-serif"><text font-size="10" x="3" text-anchor="start" fill="black" font-family="Helvetica Neue, Helvetica, Arial, sans-serif"/><path class="divider" visibility="visible" d="M 0 -6 L 220 -6" stroke="#DFE1E3"/></g><g class="detail expression" transform="translate(0, 66)" font-family="'Fira Code',Monaco,'Courier New',Terminal,monospace"><text font-size="10" x="3" text-anchor="start" fill="black" font-family="Helvetica Neue, Helvetica, Arial, sans-serif">anon_0.score = toFloat(csvLine.</text></g><g class="detail expression" transform="translate(0, 80)" font-family="'Fira Code',Monaco,'Courier New',Terminal,monospace"><text font-size="10" x="3" text-anchor="start" fill="black" font-family="Helvetica Neue, Helvetica, Arial, sans-serif">score) AND p = anon_3 AND n = anon_</text></g><g class="detail expression" transform="translate(0, 94)" font-family="'Fira Code',Monaco,'Courier New',Terminal,monospace"><text font-size="10" x="3" text-anchor="start" fill="black" font-family="Helvetica Neue, Helvetica, Arial, sans-serif">4</text></g><g class="detail padding" transform="translate(0, 108)" font-family="'Helvetica Neue',Helvetica,Arial,sans-serif"><text font-size="10" x="3" text-anchor="start" fill="black" font-family="Helvetica Neue, Helvetica, Arial, sans-serif"/><path class="divider" visibility="visible" d="M 0 -6 L 220 -6" stroke="#DFE1E3"/></g><g class="detail estimated-rows" transform="translate(0, 114)" font-family="'Helvetica Neue',Helvetica,Arial,sans-serif"><text font-size="10" x="110" text-anchor="end" fill="black" font-family="Helvetica Neue, Helvetica, Arial, sans-serif">0 </text><text font-size="10" x="110" text-anchor="start" fill="black" font-family="Helvetica Neue, Helvetica, Arial, sans-serif">estimated rows</text></g></g><g class="operator" transform="translate(585.276611328125, -1207.9019775390625)"><rect class="background" width="220" height="209.54700531734738" rx="4" ry="4" fill="rgb(255, 255, 255)"/><g class="header" pointer-events="all"><path class="banner" d="M 216 0 A 4 4 0 0 1 220 4 L 220 14 A 4 4 0 0 1 220 18 L 0 18 A 4 4 0 0 1 0 14 L 0 4 A 4 4 0 0 1 4 0 Z" style="fill: rgb(158, 202, 225);"/><path class="expand" fill="#000000" d="M -5 -10 L 8.66 0 L -5 10 Z" transform="translate(9, 9) rotate(90) scale(0.5,0.5)"/><text class="title" font-size="11" font-family="Helvetica Neue, Helvetica, Arial, sans-serif" x="18" y="13" fill="#000000">DirectedRelationshipIndexSeek@neo4j</text></g><path class="cost" fill="#F25A29" d="M 0 162 L 220 162 L 220 205.54700531734738 A 4 4 0 0 1 216 209.54700531734738 L 4 209.54700531734738 A 4 4 0 0 1 0 205.54700531734738 Z"/><text class="cost" font-size="10" font-family="Helvetica Neue, Helvetica, Arial, sans-serif" fill="white" x="110" text-anchor="end" y="176">619.670 </text><text class="cost" font-size="10" font-family="Helvetica Neue, Helvetica, Arial, sans-serif" fill="white" x="110" text-anchor="start" y="176">db hits</text><rect class="b-outline" width="220" rx="4" ry="4" fill="none" stroke-width="1" style="stroke: rgb(111, 141, 158);" height="209.54700531734738"/><g class="detail identifiers" transform="translate(0, 32)" font-family="'Fira Code',Monaco,'Courier New',Terminal,monospace"><text font-size="10" x="3" text-anchor="start" fill="black" font-family="Helvetica Neue, Helvetica, Arial, sans-serif">anon_4, anon_0, anon_3, p, n, </text></g><g class="detail identifiers" transform="translate(0, 46)" font-family="'Fira Code',Monaco,'Courier New',Terminal,monospace"><text font-size="10" x="3" text-anchor="start" fill="black" font-family="Helvetica Neue, Helvetica, Arial, sans-serif">csvLine</text></g><g class="detail padding" transform="translate(0, 60)" font-family="'Helvetica Neue',Helvetica,Arial,sans-serif"><text font-size="10" x="3" text-anchor="start" fill="black" font-family="Helvetica Neue, Helvetica, Arial, sans-serif"/><path class="divider" visibility="visible" d="M 0 -6 L 220 -6" stroke="#DFE1E3"/></g><g class="detail expression" transform="translate(0, 66)" font-family="'Fira Code',Monaco,'Courier New',Terminal,monospace"><text font-size="10" x="3" text-anchor="start" fill="black" font-family="Helvetica Neue, Helvetica, Arial, sans-serif">RANGE INDEX (anon_3)-[anon_0:VOTE(</text></g><g class="detail expression" transform="translate(0, 80)" font-family="'Fira Code',Monaco,'Courier New',Terminal,monospace"><text font-size="10" x="3" text-anchor="start" fill="black" font-family="Helvetica Neue, Helvetica, Arial, sans-serif">year)]-&gt;(anon_4) WHERE year = </text></g><g class="detail expression" transform="translate(0, 94)" font-family="'Fira Code',Monaco,'Courier New',Terminal,monospace"><text font-size="10" x="3" text-anchor="start" fill="black" font-family="Helvetica Neue, Helvetica, Arial, sans-serif">toInteger(csvLine.year)</text></g><g class="detail padding" transform="translate(0, 108)" font-family="'Helvetica Neue',Helvetica,Arial,sans-serif"><text font-size="10" x="3" text-anchor="start" fill="black" font-family="Helvetica Neue, Helvetica, Arial, sans-serif"/><path class="divider" visibility="visible" d="M 0 -6 L 220 -6" stroke="#DFE1E3"/></g><g class="detail operator-memory" transform="translate(0, 114)" font-family="'Helvetica Neue',Helvetica,Arial,sans-serif"><text font-size="10" x="110" text-anchor="end" fill="black" font-family="Helvetica Neue, Helvetica, Arial, sans-serif">53.944 </text><text font-size="10" x="110" text-anchor="start" fill="black" font-family="Helvetica Neue, Helvetica, Arial, sans-serif">memory (bytes)</text></g><g class="detail pagecache-hits" transform="translate(0, 128)" font-family="'Helvetica Neue',Helvetica,Arial,sans-serif"><text font-size="10" x="110" text-anchor="end" fill="black" font-family="Helvetica Neue, Helvetica, Arial, sans-serif">3.140 </text><text font-size="10" x="110" text-anchor="start" fill="black" font-family="Helvetica Neue, Helvetica, Arial, sans-serif">pagecache hits</text></g><g class="detail pagecache-misses" transform="translate(0, 142)" font-family="'Helvetica Neue',Helvetica,Arial,sans-serif"><text font-size="10" x="110" text-anchor="end" fill="black" font-family="Helvetica Neue, Helvetica, Arial, sans-serif">1 </text><text font-size="10" x="110" text-anchor="start" fill="black" font-family="Helvetica Neue, Helvetica, Arial, sans-serif">pagecache misses</text></g><g class="detail estimated-rows" transform="translate(0, 156)" font-family="'Helvetica Neue',Helvetica,Arial,sans-serif"><text font-size="10" x="110" text-anchor="end" fill="black" font-family="Helvetica Neue, Helvetica, Arial, sans-serif">0 </text><text font-size="10" x="110" text-anchor="start" fill="black" font-family="Helvetica Neue, Helvetica, Arial, sans-serif">estimated rows</text></g></g></g></svg>