<svg xmlns="http://www.w3.org/2000/svg" width="284.5361328125" height="224.90728759765625" viewBox="-201.14471435546875 -95.97161102294922 284.5361328125 224.90728759765625"><title>Neo4j Graph Visualization</title><desc>Created using Neo4j (http://www.neo4j.com/)</desc><g class="layer relationships"><g class="relationship" transform="translate(-17.698265958401382 37.27183720130604) rotate(402.11426745485704)"><path class="b-outline" fill="#A5ABB6" stroke="none" d="M 25 0.5 L 29.10814634324676 0.5 L 29.10814634324676 -0.5 L 25 -0.5 Z M 57.33470884324676 0.5 L 61.44285518649352 0.5 L 61.44285518649352 3.5 L 68.44285518649352 0 L 61.44285518649352 -3.5 L 61.44285518649352 -0.5 L 57.33470884324676 -0.5 Z"/><text text-anchor="middle" pointer-events="none" font-size="8px" fill="#000000" x="43.22142759324676" y="3" font-family="Helvetica Neue, Helvetica, Arial, sans-serif">NEAR</text></g><g class="relationship" transform="translate(54.391414945033716 -59.72142448740675) rotate(450.9950192744107)"><path class="b-outline" fill="#A5ABB6" stroke="none" d="M 25 0.5 L 52.66676212734967 0.5 L 52.66676212734967 -0.5 L 25 -0.5 Z M 100.01441837734967 0.5 L 127.68118050469934 0.5 L 127.68118050469934 3.5 L 134.68118050469934 0 L 127.68118050469934 -3.5 L 127.68118050469934 -0.5 L 100.01441837734967 -0.5 Z"/><text text-anchor="middle" pointer-events="none" font-size="8px" fill="#000000" x="76.34059025234967" y="3" transform="rotate(180 76.34059025234967 0)" font-family="Helvetica Neue, Helvetica, Arial, sans-serif">PARTY_TO</text></g><g class="relationship" transform="translate(-126.10645849988293 -66.9716088737448) rotate(403.87801526136946)"><path class="b-outline" fill="#A5ABB6" stroke="none" d="M 25 0.5 L 48.024297283338754 0.5 L 48.024297283338754 -0.5 L 25 -0.5 Z M 95.37195353333875 0.5 L 118.39625081667751 0.5 L 118.39625081667751 3.5 L 125.39625081667751 0 L 118.39625081667751 -3.5 L 118.39625081667751 -0.5 L 95.37195353333875 -0.5 Z"/><text text-anchor="middle" pointer-events="none" font-size="8px" fill="#000000" x="71.69812540833875" y="3" font-family="Helvetica Neue, Helvetica, Arial, sans-serif">PARTY_TO</text></g><g class="relationship" transform="translate(54.391414945033716 -59.72142448740675) rotate(182.30020311727128)"><path class="b-outline" fill="#A5ABB6" stroke="none" d="M 25 0.5 L 68.71038506149388 0.5 L 68.71038506149388 -0.5 L 25 -0.5 Z M 104.93304131149388 0.5 L 148.64342637298776 0.5 L 148.64342637298776 3.5 L 155.64342637298776 0 L 148.64342637298776 -3.5 L 148.64342637298776 -0.5 L 104.93304131149388 -0.5 Z"/><text text-anchor="middle" pointer-events="none" font-size="8px" fill="#000000" x="86.82171318649388" y="3" transform="rotate(180 86.82171318649388 0)" font-family="Helvetica Neue, Helvetica, Arial, sans-serif">KNOWS</text></g><g class="relationship" transform="translate(-17.698265958401382 37.27183720130604) rotate(533.5512160586568)"><path class="b-outline" fill="#A5ABB6" stroke="none" d="M 25 0.5 L 60.10167315044096 0.5 L 60.10167315044096 -0.5 L 25 -0.5 Z M 88.32823565044096 0.5 L 123.42990880088192 0.5 L 123.42990880088192 3.5 L 130.42990880088192 0 L 123.42990880088192 -3.5 L 123.42990880088192 -0.5 L 88.32823565044096 -0.5 Z"/><text text-anchor="middle" pointer-events="none" font-size="8px" fill="#000000" x="74.21495440044096" y="3" transform="rotate(180 74.21495440044096 0)" font-family="Helvetica Neue, Helvetica, Arial, sans-serif">NEAR</text></g><g class="relationship" transform="translate(54.391414945033716 -59.72142448740675) rotate(513.1962234498292)"><path class="b-outline" fill="#A5ABB6" stroke="none" d="M 25 0.5 L 99.72919277197333 0.5 L 99.72919277197333 -0.5 L 25 -0.5 Z M 147.07684902197332 0.5 L 221.80604179394666 0.5 L 221.80604179394666 3.5 L 228.80604179394666 0 L 221.80604179394666 -3.5 L 221.80604179394666 -0.5 L 147.07684902197332 -0.5 Z"/><text text-anchor="middle" pointer-events="none" font-size="8px" fill="#000000" x="123.40302089697333" y="3" transform="rotate(180 123.40302089697333 0)" font-family="Helvetica Neue, Helvetica, Arial, sans-serif">PARTY_TO</text></g><g class="relationship" transform="translate(-172.14471529530914 54.72895142652817) rotate(371.421688516204)"><path class="b-outline" fill="#A5ABB6" stroke="none" d="M 25 0.5 L 96.52874929444665 0.5 L 96.52874929444665 -0.5 L 25 -0.5 Z M 124.75531179444665 0.5 L 196.2840610888933 0.5 L 196.2840610888933 3.5 L 203.2840610888933 0 L 196.2840610888933 -3.5 L 196.2840610888933 -0.5 L 124.75531179444665 -0.5 Z"/><text text-anchor="middle" pointer-events="none" font-size="8px" fill="#000000" x="110.64203054444665" y="3" font-family="Helvetica Neue, Helvetica, Arial, sans-serif">NEAR</text></g></g><g class="layer nodes"><g class="node" aria-label="graph-node403" transform="translate(-17.698265958401382,37.27183720130604)"><circle class="b-outline" cx="0" cy="0" r="25" fill="#57C7E3" stroke="#23b3d7" stroke-width="2px"/><text class="caption" text-anchor="middle" pointer-events="none" x="0" y="5" font-size="10px" fill="#2A2C34" font-family="Helvetica Neue, Helvetica, Arial, sans-serif"> 31874</text></g><g class="node" aria-label="graph-node242" transform="translate(54.391414945033716,-59.72142448740675)"><circle class="b-outline" cx="0" cy="0" r="25" fill="#F79767" stroke="#f36924" stroke-width="2px"/><text class="caption" text-anchor="middle" pointer-events="none" x="0" y="5" font-size="10px" fill="#FFFFFF" font-family="Helvetica Neue, Helvetica, Arial, sans-serif"> 874</text></g><g class="node" aria-label="graph-node406" transform="translate(51.61847307354415,99.9356774553246)"><circle class="b-outline" cx="0" cy="0" r="25" fill="#57C7E3" stroke="#23b3d7" stroke-width="2px"/><text class="caption" text-anchor="middle" pointer-events="none" x="0" y="5" font-size="10px" fill="#2A2C34" font-family="Helvetica Neue, Helvetica, Arial, sans-serif"> 31908</text></g><g class="node" aria-label="graph-node239" transform="translate(-126.10645849988293,-66.9716088737448)"><circle class="b-outline" cx="0" cy="0" r="25" fill="#F79767" stroke="#f36924" stroke-width="2px"/><text class="caption" text-anchor="middle" pointer-events="none" x="0" y="5" font-size="10px" fill="#FFFFFF" font-family="Helvetica Neue, Helvetica, Arial, sans-serif"> 863</text></g><g class="node" aria-label="graph-node404" transform="translate(-172.14471529530914,54.72895142652817)"><circle class="b-outline" cx="0" cy="0" r="25" fill="#57C7E3" stroke="#23b3d7" stroke-width="2px"/><text class="caption" text-anchor="middle" pointer-events="none" x="0" y="5" font-size="10px" fill="#2A2C34" font-family="Helvetica Neue, Helvetica, Arial, sans-serif"> 31875</text></g></g></svg>