<svg xmlns="http://www.w3.org/2000/svg" width="781.0587158203125" height="489.0167236328125" viewBox="-829.7172241210938 -273.8081970214844 781.0587158203125 489.0167236328125"><title>Neo4j Graph Visualization</title><desc>Created using Neo4j (http://www.neo4j.com/)</desc><g class="layer relationships"><g class="relationship" transform="translate(-150.74806005563562 -175.18208631389297) rotate(494.2113126123734)"><path class="b-outline" fill="#A5ABB6" stroke="none" d="M 25 0.5 L 58.165659936676406 0.5 L 58.165659936676406 -0.5 L 25 -0.5 Z M 116.4781599366764 0.5 L 149.6438198733528 0.5 L 149.6438198733528 3.5 L 156.6438198733528 0 L 149.6438198733528 -3.5 L 149.6438198733528 -0.5 L 116.4781599366764 -0.5 Z"/><text text-anchor="middle" pointer-events="none" font-size="8px" fill="#000000" x="87.3219099366764" y="3" transform="rotate(180 87.3219099366764 0)" font-family="Helvetica Neue, Helvetica, Arial, sans-serif">INVOLVED_IN</text></g><g class="relationship" transform="translate(-134.64877762492 84.59124708569837) rotate(222.22827622739578)"><path class="b-outline" fill="#A5ABB6" stroke="none" d="M 25 0.5 L 63.74208130123104 0.5 L 63.74208130123104 -0.5 L 25 -0.5 Z M 122.05458130123104 0.5 L 160.79666260246208 0.5 L 160.79666260246208 3.5 L 167.79666260246208 0 L 160.79666260246208 -3.5 L 160.79666260246208 -0.5 L 122.05458130123104 -0.5 Z"/><text text-anchor="middle" pointer-events="none" font-size="8px" fill="#000000" x="92.89833130123104" y="3" transform="rotate(180 92.89833130123104 0)" font-family="Helvetica Neue, Helvetica, Arial, sans-serif">INVOLVED_IN</text></g><g class="relationship" transform="translate(-800.7172029529552 -109.58209698027608) rotate(336.4534275056146)"><path class="b-outline" fill="#A5ABB6" stroke="none" d="M 24.018736134675446,6.953439040707552 L 24.277555179777966,5.987513214418485 A 264.06752610891795 264.06752610891795 0 0 0 71.65367743666351,14.15148273604143 L 71.57426751071691,15.148324781533688 A 265.06752610891795 265.06752610891795 0 0 1 24.018736134675446,6.953439040707552 Z M 108.73730193342769,15.495138451004095 L 108.67650971930738,14.496988008083633 A 264.06752610891795 264.06752610891795 0 0 0 156.1967433626079,7.218612300861319 L 155.474502152155,4.306848637044569 L 163.1112321132558,6.018676753774041 L 157.15973164321176,11.100963852616987 L 156.43749043275886,8.189200188800235 A 265.06752610891795 265.06752610891795 0 0 1 108.73730193342769,15.495138451004095"/><text text-anchor="middle" pointer-events="none" font-size="8px" fill="#000000" x="90.15436487621015" y="18.473876082577533" font-family="Helvetica Neue, Helvetica, Arial, sans-serif">CALLER</text></g><g class="relationship" transform="translate(-408.05381154226023 -175.33881851966427) rotate(129.45505231609462)"><path class="b-outline" fill="#A5ABB6" stroke="none" d="M 6.953439040707552 24.018736134675446 L 17.306200844808384 62.65576918623819 A 17.916697508022974 17.916697508022974 0 1 1 -17.306200844808384 62.65576918623819 L -8.765172356425198 30.780216918698923 L -4.901469051268926 31.815493099109005 L -6.4704761275630185 24.148145657226706 L -11.662949835292403 30.00375978339136 L -7.79924653013613 31.039035963801442 L -16.340275018519314 62.91458823134071 A 16.916697508022974 16.916697508022974 0 1 0 16.340275018519314 62.91458823134071 L 5.987513214418485 24.277555179777966 Z"/><text text-anchor="middle" pointer-events="none" font-size="8px" fill="#000000" x="0" y="94.20964923467838" transform="rotate(180 0 91.20964923467838)" font-family="Helvetica Neue, Helvetica, Arial, sans-serif">KNOWS_…</text></g><g class="relationship" transform="translate(-408.05381154226023 -175.33881851966427) rotate(166.55130049538326)"><path class="b-outline" fill="#A5ABB6" stroke="none" d="M 6.953439040707552 24.018736134675446 L 17.306200844808384 62.65576918623819 A 17.916697508022974 17.916697508022974 0 1 1 -17.306200844808384 62.65576918623819 L -8.765172356425198 30.780216918698923 L -4.901469051268926 31.815493099109005 L -6.4704761275630185 24.148145657226706 L -11.662949835292403 30.00375978339136 L -7.79924653013613 31.039035963801442 L -16.340275018519314 62.91458823134071 A 16.916697508022974 16.916697508022974 0 1 0 16.340275018519314 62.91458823134071 L 5.987513214418485 24.277555179777966 Z"/><text text-anchor="middle" pointer-events="none" font-size="8px" fill="#000000" x="0" y="94.20964923467838" transform="rotate(180 0 91.20964923467838)" font-family="Helvetica Neue, Helvetica, Arial, sans-serif">FAMILY_R…</text></g><g class="relationship" transform="translate(-277.4095013627783 -44.984710825059494) rotate(360.96170589625245)"><path class="b-outline" fill="#A5ABB6" stroke="none" d="M 25 0.5 L 56.78799276089825 0.5 L 56.78799276089825 -0.5 L 25 -0.5 Z M 135.99111776089825 0.5 L 167.7791105217965 0.5 L 167.7791105217965 3.5 L 174.7791105217965 0 L 167.7791105217965 -3.5 L 167.7791105217965 -0.5 L 135.99111776089825 -0.5 Z"/><text text-anchor="middle" pointer-events="none" font-size="8px" fill="#000000" x="96.38955526089825" y="3" font-family="Helvetica Neue, Helvetica, Arial, sans-serif">INVESTIGATED_BY</text></g><g class="relationship" transform="translate(-408.05381154226023 -175.33881851966427) rotate(514.6778581284649)"><path class="b-outline" fill="#A5ABB6" stroke="none" d="M 25 0.5 L 110.3825377832184 0.5 L 110.3825377832184 -0.5 L 25 -0.5 Z M 161.2887877832184 0.5 L 246.6713255664368 0.5 L 246.6713255664368 3.5 L 253.6713255664368 0 L 246.6713255664368 -3.5 L 246.6713255664368 -0.5 L 161.2887877832184 -0.5 Z"/><text text-anchor="middle" pointer-events="none" font-size="8px" fill="#000000" x="135.8356627832184" y="3" transform="rotate(180 135.8356627832184 0)" font-family="Helvetica Neue, Helvetica, Arial, sans-serif">HAS_EMAIL</text></g><g class="relationship" transform="translate(-408.05381154226023 -175.33881851966427) rotate(203.64754867467187)"><path class="b-outline" fill="#A5ABB6" stroke="none" d="M 6.953439040707552 24.018736134675446 L 17.306200844808384 62.65576918623819 A 17.916697508022974 17.916697508022974 0 1 1 -17.306200844808384 62.65576918623819 L -8.765172356425198 30.780216918698923 L -4.901469051268926 31.815493099109005 L -6.4704761275630185 24.148145657226706 L -11.662949835292403 30.00375978339136 L -7.79924653013613 31.039035963801442 L -16.340275018519314 62.91458823134071 A 16.916697508022974 16.916697508022974 0 1 0 16.340275018519314 62.91458823134071 L 5.987513214418485 24.277555179777966 Z"/><text text-anchor="middle" pointer-events="none" font-size="8px" fill="#000000" x="0" y="94.20964923467838" transform="rotate(180 0 91.20964923467838)" font-family="Helvetica Neue, Helvetica, Arial, sans-serif">KNOWS_SN</text></g><g class="relationship" transform="translate(-408.05381154226023 -175.33881851966427) rotate(240.7437968539605)"><path class="b-outline" fill="#A5ABB6" stroke="none" d="M 6.953439040707552 24.018736134675446 L 17.306200844808384 62.65576918623819 A 17.916697508022974 17.916697508022974 0 1 1 -17.306200844808384 62.65576918623819 L -8.765172356425198 30.780216918698923 L -4.901469051268926 31.815493099109005 L -6.4704761275630185 24.148145657226706 L -11.662949835292403 30.00375978339136 L -7.79924653013613 31.039035963801442 L -16.340275018519314 62.91458823134071 A 16.916697508022974 16.916697508022974 0 1 0 16.340275018519314 62.91458823134071 L 5.987513214418485 24.277555179777966 Z"/><text text-anchor="middle" pointer-events="none" font-size="8px" fill="#000000" x="0" y="94.20964923467838" transform="rotate(180 0 91.20964923467838)" font-family="Helvetica Neue, Helvetica, Arial, sans-serif">KNOWS</text></g><g class="relationship" transform="translate(-800.7172029529552 -109.58209698027608) rotate(336.4534275056146)"><path class="b-outline" fill="#A5ABB6" stroke="none" d="M 24.018736134675446,-6.953439040707552 L 24.277555179777966,-5.987513214418485 A 264.06752610891795 264.06752610891795 0 0 1 71.65367743666349,-14.15148273604143 L 71.5742675107169,-15.148324781533688 A 265.06752610891795 265.06752610891795 0 0 0 24.018736134675446,-6.953439040707552 Z M 108.73730193342772,-15.495138451004095 L 108.6765097193074,-14.496988008083633 A 264.06752610891795 264.06752610891795 0 0 1 156.1967433626079,-7.218612300861319 L 155.474502152155,-4.306848637044569 L 163.1112321132558,-6.018676753774041 L 157.15973164321176,-11.100963852616987 L 156.43749043275886,-8.189200188800235 A 265.06752610891795 265.06752610891795 0 0 0 108.73730193342772,-15.495138451004095"/><text text-anchor="middle" pointer-events="none" font-size="8px" fill="#000000" x="90.15436487621015" y="-12.473876082577533" font-family="Helvetica Neue, Helvetica, Arial, sans-serif">CALLED</text></g><g class="relationship" transform="translate(-452.2231508547921 186.20849844322944) rotate(205.89473613354215)"><path class="b-outline" fill="#A5ABB6" stroke="none" d="M 25 0.5 L 64.15755195781874 0.5 L 64.15755195781874 -0.5 L 25 -0.5 Z M 153.73567695781873 0.5 L 192.89322891563748 0.5 L 192.89322891563748 3.5 L 199.89322891563748 0 L 192.89322891563748 -3.5 L 192.89322891563748 -0.5 L 153.73567695781873 -0.5 Z"/><text text-anchor="middle" pointer-events="none" font-size="8px" fill="#000000" x="108.94661445781874" y="3" transform="rotate(180 108.94661445781874 0)" font-family="Helvetica Neue, Helvetica, Arial, sans-serif">POSTCODE_IN_AREA</text></g><g class="relationship" transform="translate(-408.05381154226023 -175.33881851966427) rotate(467.63885994138343)"><path class="b-outline" fill="#A5ABB6" stroke="none" d="M 25 0.5 L 48.8684049598326 0.5 L 48.8684049598326 -0.5 L 25 -0.5 Z M 137.10277995983262 0.5 L 160.9711849196652 0.5 L 160.9711849196652 3.5 L 167.9711849196652 0 L 160.9711849196652 -3.5 L 160.9711849196652 -0.5 L 137.10277995983262 -0.5 Z"/><text text-anchor="middle" pointer-events="none" font-size="8px" fill="#000000" x="92.9855924598326" y="3" transform="rotate(180 92.9855924598326 0)" font-family="Helvetica Neue, Helvetica, Arial, sans-serif">CURRENT_ADDRESS</text></g><g class="relationship" transform="translate(-466.5272274317632 8.559897744242363) rotate(445.3965361133211)"><path class="b-outline" fill="#A5ABB6" stroke="none" d="M 25 0.5 L 49.715288047374145 0.5 L 49.715288047374145 -0.5 L 25 -0.5 Z M 121.50825679737414 0.5 L 146.2235448447483 0.5 L 146.2235448447483 3.5 L 153.2235448447483 0 L 146.2235448447483 -3.5 L 146.2235448447483 -0.5 L 121.50825679737414 -0.5 Z"/><text text-anchor="middle" pointer-events="none" font-size="8px" fill="#000000" x="85.61177242237414" y="3" font-family="Helvetica Neue, Helvetica, Arial, sans-serif">HAS_POSTCODE</text></g><g class="relationship" transform="translate(-277.4095013627783 -44.984710825059494) rotate(524.1916732623204)"><path class="b-outline" fill="#A5ABB6" stroke="none" d="M 25 0.5 L 61.62541949674787 0.5 L 61.62541949674787 -0.5 L 25 -0.5 Z M 127.92620074674787 0.5 L 164.55162024349573 0.5 L 164.55162024349573 3.5 L 171.55162024349573 0 L 164.55162024349573 -3.5 L 164.55162024349573 -0.5 L 127.92620074674787 -0.5 Z"/><text text-anchor="middle" pointer-events="none" font-size="8px" fill="#000000" x="94.77581012174787" y="3" transform="rotate(180 94.77581012174787 0)" font-family="Helvetica Neue, Helvetica, Arial, sans-serif">OCCURRED_AT</text></g><g class="relationship" transform="translate(-408.05381154226023 -175.33881851966427) rotate(277.8400450332491)"><path class="b-outline" fill="#A5ABB6" stroke="none" d="M 6.953439040707552 24.018736134675446 L 17.306200844808384 62.65576918623819 A 17.916697508022974 17.916697508022974 0 1 1 -17.306200844808384 62.65576918623819 L -8.765172356425198 30.780216918698923 L -4.901469051268926 31.815493099109005 L -6.4704761275630185 24.148145657226706 L -11.662949835292403 30.00375978339136 L -7.79924653013613 31.039035963801442 L -16.340275018519314 62.91458823134071 A 16.916697508022974 16.916697508022974 0 1 0 16.340275018519314 62.91458823134071 L 5.987513214418485 24.277555179777966 Z"/><text text-anchor="middle" pointer-events="none" font-size="8px" fill="#000000" x="0" y="94.20964923467838" font-family="Helvetica Neue, Helvetica, Arial, sans-serif">KNOWS_LW</text></g><g class="relationship" transform="translate(-466.5272274317632 8.559897744242363) rotate(517.0960842427501)"><path class="b-outline" fill="#A5ABB6" stroke="none" d="M 25 0.5 L 56.058294476544035 0.5 L 56.058294476544035 -0.5 L 25 -0.5 Z M 141.04266947654403 0.5 L 172.10096395308807 0.5 L 172.10096395308807 3.5 L 179.10096395308807 0 L 172.10096395308807 -3.5 L 172.10096395308807 -0.5 L 141.04266947654403 -0.5 Z"/><text text-anchor="middle" pointer-events="none" font-size="8px" fill="#000000" x="98.55048197654403" y="3" transform="rotate(180 98.55048197654403 0)" font-family="Helvetica Neue, Helvetica, Arial, sans-serif">LOCATION_IN_AREA</text></g><g class="relationship" transform="translate(-408.05381154226023 -175.33881851966427) rotate(404.93629321253775)"><path class="b-outline" fill="#A5ABB6" stroke="none" d="M 25 0.5 L 65.10310449514253 0.5 L 65.10310449514253 -0.5 L 25 -0.5 Z M 112.45076074514253 0.5 L 152.55386524028506 0.5 L 152.55386524028506 3.5 L 159.55386524028506 0 L 152.55386524028506 -3.5 L 152.55386524028506 -0.5 L 112.45076074514253 -0.5 Z"/><text text-anchor="middle" pointer-events="none" font-size="8px" fill="#000000" x="88.77693262014253" y="3" font-family="Helvetica Neue, Helvetica, Arial, sans-serif">PARTY_TO</text></g><g class="relationship" transform="translate(-408.05381154226023 -175.33881851966427) rotate(182.358804136806)"><path class="b-outline" fill="#A5ABB6" stroke="none" d="M 25 0.5 L 79.36443153160442 0.5 L 79.36443153160442 -0.5 L 25 -0.5 Z M 134.71208778160442 0.5 L 189.07651931320885 0.5 L 189.07651931320885 3.5 L 196.07651931320885 0 L 189.07651931320885 -3.5 L 189.07651931320885 -0.5 L 134.71208778160442 -0.5 Z"/><text text-anchor="middle" pointer-events="none" font-size="8px" fill="#000000" x="107.03825965660442" y="3" transform="rotate(180 107.03825965660442 0)" font-family="Helvetica Neue, Helvetica, Arial, sans-serif">HAS_PHONE</text></g></g><g class="layer nodes"><g class="node" aria-label="graph-node-44" transform="translate(-150.74806005563562,-175.18208631389297)"><circle class="b-outline" cx="0" cy="0" r="25" fill="#DA7194" stroke="#cc3c6c" stroke-width="2px"/><text class="caption" text-anchor="middle" pointer-events="none" x="0" y="5" font-size="10px" fill="#FFFFFF" font-family="Helvetica Neue, Helvetica, Arial, sans-serif"> Vehicle</text></g><g class="node" aria-label="graph-node-40" transform="translate(-654.5366284192996,87.99332035014228)"><circle class="b-outline" cx="0" cy="0" r="25" fill="#D9C8AE" stroke="#c0a378" stroke-width="2px"/><text class="caption" text-anchor="middle" pointer-events="none" x="0" y="5" font-size="10px" fill="#2A2C34" font-family="Helvetica Neue, Helvetica, Arial, sans-serif"> Area</text></g><g class="node" aria-label="graph-node-37" transform="translate(-659.9496521863052,-56.149082555593495)"><circle class="b-outline" cx="0" cy="0" r="25" fill="#604A0E" stroke="#423204" stroke-width="2px"/><text class="caption" text-anchor="middle" pointer-events="none" x="0" y="5" font-size="10px" fill="#FFFFFF" font-family="Helvetica Neue, Helvetica, Arial, sans-serif"> Email</text></g><g class="node" aria-label="graph-node-36" transform="translate(-628.9430084272537,-184.43772456084224)"><circle class="b-outline" cx="0" cy="0" r="25" fill="#4C8EDA" stroke="#2870c2" stroke-width="2px"/><text class="caption" text-anchor="middle" pointer-events="none" x="0" y="5" font-size="10px" fill="#FFFFFF" font-family="Helvetica Neue, Helvetica, Arial, sans-serif"> Phone</text></g><g class="node" aria-label="graph-node-42" transform="translate(-277.4095013627783,-44.984710825059494)"><circle class="b-outline" cx="0" cy="0" r="25" fill="#57C7E3" stroke="#23b3d7" stroke-width="2px"/><text class="caption" text-anchor="middle" pointer-events="none" x="0" y="5" font-size="10px" fill="#2A2C34" font-family="Helvetica Neue, Helvetica, Arial, sans-serif"> Crime</text></g><g class="node" aria-label="graph-node-41" transform="translate(-800.7172029529552,-109.58209698027608)"><circle class="b-outline" cx="0" cy="0" r="25" fill="#F16667" stroke="#eb2728" stroke-width="2px"/><text class="caption" text-anchor="middle" pointer-events="none" x="0" y="5" font-size="10px" fill="#FFFFFF" font-family="Helvetica Neue, Helvetica, Arial, sans-serif"> PhoneCall</text></g><g class="node" aria-label="graph-node-43" transform="translate(-134.64877762492,84.59124708569837)"><circle class="b-outline" cx="0" cy="0" r="25" fill="#569480" stroke="#447666" stroke-width="2px"/><text class="caption" text-anchor="middle" pointer-events="none" x="0" y="5" font-size="10px" fill="#FFFFFF" font-family="Helvetica Neue, Helvetica, Arial, sans-serif"> Object</text></g><g class="node" aria-label="graph-node-39" transform="translate(-452.2231508547921,186.20849844322944)"><circle class="b-outline" cx="0" cy="0" r="25" fill="#C990C0" stroke="#b261a5" stroke-width="2px"/><text class="caption" text-anchor="middle" pointer-events="none" x="0" y="5" font-size="10px" fill="#FFFFFF" font-family="Helvetica Neue, Helvetica, Arial, sans-serif"> PostCode</text></g><g class="node" aria-label="graph-node-34" transform="translate(-408.05381154226023,-175.33881851966427)"><circle class="b-outline" cx="0" cy="0" r="25" fill="#F79767" stroke="#f36924" stroke-width="2px"/><text class="caption" text-anchor="middle" pointer-events="none" x="0" y="5" font-size="10px" fill="#FFFFFF" font-family="Helvetica Neue, Helvetica, Arial, sans-serif"> Person</text></g><g class="node" aria-label="graph-node-35" transform="translate(-466.5272274317632,8.559897744242363)"><circle class="b-outline" cx="0" cy="0" r="25" fill="#8DCC93" stroke="#5db665" stroke-width="2px"/><text class="caption" text-anchor="middle" pointer-events="none" x="0" y="5" font-size="10px" fill="#2A2C34" font-family="Helvetica Neue, Helvetica, Arial, sans-serif"> Location</text></g><g class="node" aria-label="graph-node-38" transform="translate(-77.65853246625866,-41.631589028610726)"><circle class="b-outline" cx="0" cy="0" r="25" fill="#ECB5C9" stroke="#da7298" stroke-width="2px"/><text class="caption" text-anchor="middle" pointer-events="none" x="0" y="5" font-size="10px" fill="#2A2C34" font-family="Helvetica Neue, Helvetica, Arial, sans-serif"> Officer</text></g></g></svg>