<svg xmlns="http://www.w3.org/2000/svg" width="850.384765625" height="715.4156494140625" viewBox="-458.5058288574219 -300.5838623046875 850.384765625 715.4156494140625"><title>Neo4j Graph Visualization</title><desc>Created using Neo4j (http://www.neo4j.com/)</desc><g class="layer relationships"><g class="relationship" transform="translate(-247.65360937446366 -125.92979127470727) rotate(244.03887497268073)"><path class="b-outline" fill="#A5ABB6" stroke="none" d="M 25 0.5 L 53.82689471364793 0.5 L 53.82689471364793 -0.5 L 25 -0.5 Z M 101.17455096364793 0.5 L 130.00144567729586 0.5 L 130.00144567729586 3.5 L 137.00144567729586 0 L 130.00144567729586 -3.5 L 130.00144567729586 -0.5 L 101.17455096364793 -0.5 Z"/><text text-anchor="middle" pointer-events="none" font-size="8px" fill="#000000" x="77.50072283864793" y="3" transform="rotate(180 77.50072283864793 0)" font-family="Helvetica Neue, Helvetica, Arial, sans-serif">PARTY_TO</text></g><g class="relationship" transform="translate(-247.65360937446366 -125.92979127470727) rotate(208.06298641706428)"><path class="b-outline" fill="#A5ABB6" stroke="none" d="M 25 0.5 L 53.613223984118335 0.5 L 53.613223984118335 -0.5 L 25 -0.5 Z M 100.96088023411833 0.5 L 129.57410421823667 0.5 L 129.57410421823667 3.5 L 136.57410421823667 0 L 129.57410421823667 -3.5 L 129.57410421823667 -0.5 L 100.96088023411833 -0.5 Z"/><text text-anchor="middle" pointer-events="none" font-size="8px" fill="#000000" x="77.28705210911833" y="3" transform="rotate(180 77.28705210911833 0)" font-family="Helvetica Neue, Helvetica, Arial, sans-serif">PARTY_TO</text></g><g class="relationship" transform="translate(-268.9752559842619 113.92153850077672) rotate(538.0433065529347)"><path class="b-outline" fill="#A5ABB6" stroke="none" d="M 25 0.5 L 53.13828635840909 0.5 L 53.13828635840909 -0.5 L 25 -0.5 Z M 100.48594260840909 0.5 L 128.62422896681818 0.5 L 128.62422896681818 3.5 L 135.62422896681818 0 L 128.62422896681818 -3.5 L 128.62422896681818 -0.5 L 100.48594260840909 -0.5 Z"/><text text-anchor="middle" pointer-events="none" font-size="8px" fill="#000000" x="76.81211448340909" y="3" transform="rotate(180 76.81211448340909 0)" font-family="Helvetica Neue, Helvetica, Arial, sans-serif">PARTY_TO</text></g><g class="relationship" transform="translate(-268.9752559842619 113.92153850077672) rotate(502.1827306285014)"><path class="b-outline" fill="#A5ABB6" stroke="none" d="M 25 0.5 L 53.940493460934135 0.5 L 53.940493460934135 -0.5 L 25 -0.5 Z M 101.28814971093414 0.5 L 130.22864317186827 0.5 L 130.22864317186827 3.5 L 137.22864317186827 0 L 130.22864317186827 -3.5 L 130.22864317186827 -0.5 L 101.28814971093414 -0.5 Z"/><text text-anchor="middle" pointer-events="none" font-size="8px" fill="#000000" x="77.61432158593414" y="3" transform="rotate(180 77.61432158593414 0)" font-family="Helvetica Neue, Helvetica, Arial, sans-serif">PARTY_TO</text></g><g class="relationship" transform="translate(-268.9752559842619 113.92153850077672) rotate(466.3522210791337)"><path class="b-outline" fill="#A5ABB6" stroke="none" d="M 25 0.5 L 53.42068880156151 0.5 L 53.42068880156151 -0.5 L 25 -0.5 Z M 100.76834505156151 0.5 L 129.18903385312302 0.5 L 129.18903385312302 3.5 L 136.18903385312302 0 L 129.18903385312302 -3.5 L 129.18903385312302 -0.5 L 100.76834505156151 -0.5 Z"/><text text-anchor="middle" pointer-events="none" font-size="8px" fill="#000000" x="77.09451692656151" y="3" transform="rotate(180 77.09451692656151 0)" font-family="Helvetica Neue, Helvetica, Arial, sans-serif">PARTY_TO</text></g><g class="relationship" transform="translate(-168.87521575950905 16.86015280534038) rotate(206.47116825934643)"><path class="b-outline" fill="#A5ABB6" stroke="none" d="M 25 0.5 L 57.07972811004795 0.5 L 57.07972811004795 -0.5 L 25 -0.5 Z M 104.42738436004795 0.5 L 136.5071124700959 0.5 L 136.5071124700959 3.5 L 143.5071124700959 0 L 136.5071124700959 -3.5 L 136.5071124700959 -0.5 L 104.42738436004795 -0.5 Z"/><text text-anchor="middle" pointer-events="none" font-size="8px" fill="#000000" x="80.75355623504795" y="3" transform="rotate(180 80.75355623504795 0)" font-family="Helvetica Neue, Helvetica, Arial, sans-serif">PARTY_TO</text></g><g class="relationship" transform="translate(-168.87521575950905 16.86015280534038) rotate(532.052248167188)"><path class="b-outline" fill="#A5ABB6" stroke="none" d="M 25 0.5 L 56.54546485409894 0.5 L 56.54546485409894 -0.5 L 25 -0.5 Z M 103.89312110409894 0.5 L 135.43858595819788 0.5 L 135.43858595819788 3.5 L 142.43858595819788 0 L 135.43858595819788 -3.5 L 135.43858595819788 -0.5 L 103.89312110409894 -0.5 Z"/><text text-anchor="middle" pointer-events="none" font-size="8px" fill="#000000" x="80.21929297909894" y="3" transform="rotate(180 80.21929297909894 0)" font-family="Helvetica Neue, Helvetica, Arial, sans-serif">PARTY_TO</text></g><g class="relationship" transform="translate(-168.87521575950905 16.86015280534038) rotate(462.5243176613248)"><path class="b-outline" fill="#A5ABB6" stroke="none" d="M 25 0.5 L 62.13092379316177 0.5 L 62.13092379316177 -0.5 L 25 -0.5 Z M 109.47858004316177 0.5 L 146.60950383632354 0.5 L 146.60950383632354 3.5 L 153.60950383632354 0 L 146.60950383632354 -3.5 L 146.60950383632354 -0.5 L 109.47858004316177 -0.5 Z"/><text text-anchor="middle" pointer-events="none" font-size="8px" fill="#000000" x="85.80475191816177" y="3" transform="rotate(180 85.80475191816177 0)" font-family="Helvetica Neue, Helvetica, Arial, sans-serif">PARTY_TO</text></g><g class="relationship" transform="translate(-0.8791159132898598 224.71132351267784) rotate(408.5297472984421)"><path class="b-outline" fill="#A5ABB6" stroke="none" d="M 25 0.5 L 50.58563402570883 0.5 L 50.58563402570883 -0.5 L 25 -0.5 Z M 97.93329027570883 0.5 L 123.51892430141766 0.5 L 123.51892430141766 3.5 L 130.51892430141766 0 L 123.51892430141766 -3.5 L 123.51892430141766 -0.5 L 97.93329027570883 -0.5 Z"/><text text-anchor="middle" pointer-events="none" font-size="8px" fill="#000000" x="74.25946215070883" y="3" font-family="Helvetica Neue, Helvetica, Arial, sans-serif">PARTY_TO</text></g><g class="relationship" transform="translate(-0.8791159132898598 224.71132351267784) rotate(481.2155652681366)"><path class="b-outline" fill="#A5ABB6" stroke="none" d="M 25 0.5 L 51.94963766667692 0.5 L 51.94963766667692 -0.5 L 25 -0.5 Z M 99.29729391667692 0.5 L 126.24693158335384 0.5 L 126.24693158335384 3.5 L 133.24693158335384 0 L 126.24693158335384 -3.5 L 126.24693158335384 -0.5 L 99.29729391667692 -0.5 Z"/><text text-anchor="middle" pointer-events="none" font-size="8px" fill="#000000" x="75.62346579167692" y="3" transform="rotate(180 75.62346579167692 0)" font-family="Helvetica Neue, Helvetica, Arial, sans-serif">PARTY_TO</text></g><g class="relationship" transform="translate(-0.8791159132898598 224.71132351267784) rotate(444.99185199509304)"><path class="b-outline" fill="#A5ABB6" stroke="none" d="M 25 0.5 L 53.695100985356376 0.5 L 53.695100985356376 -0.5 L 25 -0.5 Z M 101.04275723535638 0.5 L 129.73785822071275 0.5 L 129.73785822071275 3.5 L 136.73785822071275 0 L 129.73785822071275 -3.5 L 129.73785822071275 -0.5 L 101.04275723535638 -0.5 Z"/><text text-anchor="middle" pointer-events="none" font-size="8px" fill="#000000" x="77.36892911035638" y="3" font-family="Helvetica Neue, Helvetica, Arial, sans-serif">PARTY_TO</text></g><g class="relationship" transform="translate(202.7126191118115 171.98075304595673) rotate(447.14623568505687)"><path class="b-outline" fill="#A5ABB6" stroke="none" d="M 25 0.5 L 51.499621079883624 0.5 L 51.499621079883624 -0.5 L 25 -0.5 Z M 98.84727732988362 0.5 L 125.34689840976725 0.5 L 125.34689840976725 3.5 L 132.34689840976725 0 L 125.34689840976725 -3.5 L 125.34689840976725 -0.5 L 98.84727732988362 -0.5 Z"/><text text-anchor="middle" pointer-events="none" font-size="8px" fill="#000000" x="75.17344920488362" y="3" font-family="Helvetica Neue, Helvetica, Arial, sans-serif">PARTY_TO</text></g><g class="relationship" transform="translate(202.7126191118115 171.98075304595673) rotate(411.53557116118225)"><path class="b-outline" fill="#A5ABB6" stroke="none" d="M 25 0.5 L 55.74433220445559 0.5 L 55.74433220445559 -0.5 L 25 -0.5 Z M 103.09198845445559 0.5 L 133.83632065891118 0.5 L 133.83632065891118 3.5 L 140.83632065891118 0 L 133.83632065891118 -3.5 L 133.83632065891118 -0.5 L 103.09198845445559 -0.5 Z"/><text text-anchor="middle" pointer-events="none" font-size="8px" fill="#000000" x="79.41816032945559" y="3" font-family="Helvetica Neue, Helvetica, Arial, sans-serif">PARTY_TO</text></g><g class="relationship" transform="translate(202.7126191118115 171.98075304595673) rotate(376.92947549454703)"><path class="b-outline" fill="#A5ABB6" stroke="none" d="M 25 0.5 L 56.53700867383844 0.5 L 56.53700867383844 -0.5 L 25 -0.5 Z M 103.88466492383844 0.5 L 135.4216735976769 0.5 L 135.4216735976769 3.5 L 142.4216735976769 0 L 135.4216735976769 -3.5 L 135.4216735976769 -0.5 L 103.88466492383844 -0.5 Z"/><text text-anchor="middle" pointer-events="none" font-size="8px" fill="#000000" x="80.21083679883844" y="3" font-family="Helvetica Neue, Helvetica, Arial, sans-serif">PARTY_TO</text></g><g class="relationship" transform="translate(202.7126191118115 171.98075304595673) rotate(342.13437887213036)"><path class="b-outline" fill="#A5ABB6" stroke="none" d="M 25 0.5 L 55.30781487163392 0.5 L 55.30781487163392 -0.5 L 25 -0.5 Z M 102.65547112163392 0.5 L 132.96328599326785 0.5 L 132.96328599326785 3.5 L 139.96328599326785 0 L 132.96328599326785 -3.5 L 132.96328599326785 -0.5 L 102.65547112163392 -0.5 Z"/><text text-anchor="middle" pointer-events="none" font-size="8px" fill="#000000" x="78.98164299663392" y="3" font-family="Helvetica Neue, Helvetica, Arial, sans-serif">PARTY_TO</text></g><g class="relationship" transform="translate(-71.50695165088376 -2.445924655513688) rotate(441.3237723366558)"><path class="b-outline" fill="#A5ABB6" stroke="none" d="M 25 0.5 L 44.160382844432476 0.5 L 44.160382844432476 -0.5 L 25 -0.5 Z M 91.50803909443248 0.5 L 110.66842193886495 0.5 L 110.66842193886495 3.5 L 117.66842193886495 0 L 110.66842193886495 -3.5 L 110.66842193886495 -0.5 L 91.50803909443248 -0.5 Z"/><text text-anchor="middle" pointer-events="none" font-size="8px" fill="#000000" x="67.83421096943248" y="3" font-family="Helvetica Neue, Helvetica, Arial, sans-serif">PARTY_TO</text></g><g class="relationship" transform="translate(-71.50695165088376 -2.445924655513688) rotate(482.9706219721815)"><path class="b-outline" fill="#A5ABB6" stroke="none" d="M 25 0.5 L 41.99835638187497 0.5 L 41.99835638187497 -0.5 L 25 -0.5 Z M 89.34601263187497 0.5 L 106.34436901374994 0.5 L 106.34436901374994 3.5 L 113.34436901374994 0 L 106.34436901374994 -3.5 L 106.34436901374994 -0.5 L 89.34601263187497 -0.5 Z"/><text text-anchor="middle" pointer-events="none" font-size="8px" fill="#000000" x="65.67218450687497" y="3" transform="rotate(180 65.67218450687497 0)" font-family="Helvetica Neue, Helvetica, Arial, sans-serif">PARTY_TO</text></g><g class="relationship" transform="translate(-71.50695165088376 -2.445924655513688) rotate(399.31922477904715)"><path class="b-outline" fill="#A5ABB6" stroke="none" d="M 25 0.5 L 47.2099654596025 0.5 L 47.2099654596025 -0.5 L 25 -0.5 Z M 94.5576217096025 0.5 L 116.767587169205 0.5 L 116.767587169205 3.5 L 123.767587169205 0 L 116.767587169205 -3.5 L 116.767587169205 -0.5 L 94.5576217096025 -0.5 Z"/><text text-anchor="middle" pointer-events="none" font-size="8px" fill="#000000" x="70.8837935846025" y="3" font-family="Helvetica Neue, Helvetica, Arial, sans-serif">PARTY_TO</text></g><g class="relationship" transform="translate(-71.50695165088376 -2.445924655513688) rotate(281.94525974057757)"><path class="b-outline" fill="#A5ABB6" stroke="none" d="M 25 0.5 L 78.62379363683753 0.5 L 78.62379363683753 -0.5 L 25 -0.5 Z M 125.97144988683753 0.5 L 179.59524352367507 0.5 L 179.59524352367507 3.5 L 186.59524352367507 0 L 179.59524352367507 -3.5 L 179.59524352367507 -0.5 L 125.97144988683753 -0.5 Z"/><text text-anchor="middle" pointer-events="none" font-size="8px" fill="#000000" x="102.29762176183753" y="3" font-family="Helvetica Neue, Helvetica, Arial, sans-serif">PARTY_TO</text></g><g class="relationship" transform="translate(-71.50695165088376 -2.445924655513688) rotate(360.0412861105893)"><path class="b-outline" fill="#A5ABB6" stroke="none" d="M 25 0.5 L 46.928663160191746 0.5 L 46.928663160191746 -0.5 L 25 -0.5 Z M 94.27631941019175 0.5 L 116.20498257038349 0.5 L 116.20498257038349 3.5 L 123.20498257038349 0 L 116.20498257038349 -3.5 L 116.20498257038349 -0.5 L 94.27631941019175 -0.5 Z"/><text text-anchor="middle" pointer-events="none" font-size="8px" fill="#000000" x="70.60249128519175" y="3" font-family="Helvetica Neue, Helvetica, Arial, sans-serif">PARTY_TO</text></g><g class="relationship" transform="translate(170.07141032943196 -37.19492752401906) rotate(375.8114559000985)"><path class="b-outline" fill="#A5ABB6" stroke="none" d="M 25 0.5 L 56.680392299197166 0.5 L 56.680392299197166 -0.5 L 25 -0.5 Z M 104.02804854919717 0.5 L 135.70844084839433 0.5 L 135.70844084839433 3.5 L 142.70844084839433 0 L 135.70844084839433 -3.5 L 135.70844084839433 -0.5 L 104.02804854919717 -0.5 Z"/><text text-anchor="middle" pointer-events="none" font-size="8px" fill="#000000" x="80.35422042419717" y="3" font-family="Helvetica Neue, Helvetica, Arial, sans-serif">PARTY_TO</text></g><g class="relationship" transform="translate(170.07141032943196 -37.19492752401906) rotate(411.3258056864332)"><path class="b-outline" fill="#A5ABB6" stroke="none" d="M 25 0.5 L 49.75226687497158 0.5 L 49.75226687497158 -0.5 L 25 -0.5 Z M 97.09992312497158 0.5 L 121.85218999994316 0.5 L 121.85218999994316 3.5 L 128.85218999994316 0 L 121.85218999994316 -3.5 L 121.85218999994316 -0.5 L 97.09992312497158 -0.5 Z"/><text text-anchor="middle" pointer-events="none" font-size="8px" fill="#000000" x="73.42609499997158" y="3" font-family="Helvetica Neue, Helvetica, Arial, sans-serif">PARTY_TO</text></g><g class="relationship" transform="translate(170.07141032943196 -37.19492752401906) rotate(342.2456441752746)"><path class="b-outline" fill="#A5ABB6" stroke="none" d="M 25 0.5 L 59.346468912155345 0.5 L 59.346468912155345 -0.5 L 25 -0.5 Z M 106.69412516215534 0.5 L 141.0405940743107 0.5 L 141.0405940743107 3.5 L 148.0405940743107 0 L 141.0405940743107 -3.5 L 141.0405940743107 -0.5 L 106.69412516215534 -0.5 Z"/><text text-anchor="middle" pointer-events="none" font-size="8px" fill="#000000" x="83.02029703715534" y="3" font-family="Helvetica Neue, Helvetica, Arial, sans-serif">PARTY_TO</text></g><g class="relationship" transform="translate(170.07141032943196 -37.19492752401906) rotate(308.3889546507543)"><path class="b-outline" fill="#A5ABB6" stroke="none" d="M 25 0.5 L 55.56846628025029 0.5 L 55.56846628025029 -0.5 L 25 -0.5 Z M 102.91612253025029 0.5 L 133.48458881050058 0.5 L 133.48458881050058 3.5 L 140.48458881050058 0 L 133.48458881050058 -3.5 L 133.48458881050058 -0.5 L 102.91612253025029 -0.5 Z"/><text text-anchor="middle" pointer-events="none" font-size="8px" fill="#000000" x="79.24229440525029" y="3" font-family="Helvetica Neue, Helvetica, Arial, sans-serif">PARTY_TO</text></g><g class="relationship" transform="translate(170.07141032943196 -37.19492752401906) rotate(274.63184870986623)"><path class="b-outline" fill="#A5ABB6" stroke="none" d="M 25 0.5 L 60.263004407058176 0.5 L 60.263004407058176 -0.5 L 25 -0.5 Z M 107.61066065705818 0.5 L 142.87366506411635 0.5 L 142.87366506411635 3.5 L 149.87366506411635 0 L 142.87366506411635 -3.5 L 142.87366506411635 -0.5 L 107.61066065705818 -0.5 Z"/><text text-anchor="middle" pointer-events="none" font-size="8px" fill="#000000" x="83.93683253205818" y="3" font-family="Helvetica Neue, Helvetica, Arial, sans-serif">PARTY_TO</text></g><g class="relationship" transform="translate(2.626685569939731 -68.5788086723831) rotate(242.93267463728745)"><path class="b-outline" fill="#A5ABB6" stroke="none" d="M 25 0.5 L 86.37074927243695 0.5 L 86.37074927243695 -0.5 L 25 -0.5 Z M 133.71840552243697 0.5 L 195.0891547948739 0.5 L 195.0891547948739 3.5 L 202.0891547948739 0 L 195.0891547948739 -3.5 L 195.0891547948739 -0.5 L 133.71840552243697 -0.5 Z"/><text text-anchor="middle" pointer-events="none" font-size="8px" fill="#000000" x="110.04457739743695" y="3" transform="rotate(180 110.04457739743695 0)" font-family="Helvetica Neue, Helvetica, Arial, sans-serif">PARTY_TO</text></g><g class="relationship" transform="translate(2.626685569939731 -68.5788086723831) rotate(334.9542457834069)"><path class="b-outline" fill="#A5ABB6" stroke="none" d="M 25 0.5 L 43.50237487567313 0.5 L 43.50237487567313 -0.5 L 25 -0.5 Z M 90.85003112567313 0.5 L 109.35240600134625 0.5 L 109.35240600134625 3.5 L 116.35240600134625 0 L 109.35240600134625 -3.5 L 109.35240600134625 -0.5 L 90.85003112567313 -0.5 Z"/><text text-anchor="middle" pointer-events="none" font-size="8px" fill="#000000" x="67.17620300067313" y="3" font-family="Helvetica Neue, Helvetica, Arial, sans-serif">PARTY_TO</text></g><g class="relationship" transform="translate(2.626685569939731 -68.5788086723831) rotate(184.27443709216442)"><path class="b-outline" fill="#A5ABB6" stroke="none" d="M 25 0.5 L 47.543156153453566 0.5 L 47.543156153453566 -0.5 L 25 -0.5 Z M 94.89081240345357 0.5 L 117.43396855690713 0.5 L 117.43396855690713 3.5 L 124.43396855690713 0 L 117.43396855690713 -3.5 L 117.43396855690713 -0.5 L 94.89081240345357 -0.5 Z"/><text text-anchor="middle" pointer-events="none" font-size="8px" fill="#000000" x="71.21698427845357" y="3" transform="rotate(180 71.21698427845357 0)" font-family="Helvetica Neue, Helvetica, Arial, sans-serif">PARTY_TO</text></g><g class="relationship" transform="translate(2.626685569939731 -68.5788086723831) rotate(221.1361748176493)"><path class="b-outline" fill="#A5ABB6" stroke="none" d="M 25 0.5 L 54.25258689951397 0.5 L 54.25258689951397 -0.5 L 25 -0.5 Z M 101.60024314951397 0.5 L 130.85283004902794 0.5 L 130.85283004902794 3.5 L 137.85283004902794 0 L 130.85283004902794 -3.5 L 130.85283004902794 -0.5 L 101.60024314951397 -0.5 Z"/><text text-anchor="middle" pointer-events="none" font-size="8px" fill="#000000" x="77.92641502451397" y="3" transform="rotate(180 77.92641502451397 0)" font-family="Helvetica Neue, Helvetica, Arial, sans-serif">PARTY_TO</text></g><g class="relationship" transform="translate(-268.9752559842619 113.92153850077672) rotate(275.07997010422247)"><path class="b-outline" fill="#A5ABB6" stroke="none" d="M 24.018736134675446,6.953439040707552 L 24.277555179777966,5.987513214418485 A 368.18205328752634 368.18205328752634 0 0 0 90.00846412994188,17.344331143904583 L 89.92817336551803,18.341102628823876 A 369.18205328752634 369.18205328752634 0 0 1 24.018736134675446,6.953439040707552 Z M 143.82290678736524,18.73552587804903 L 143.7572133877651,17.73768602253665 A 368.18205328752634 368.18205328752634 0 0 0 209.64730033690245,7.344123267958117 L 208.9133382909766,4.435291936453938 L 216.55690045139983,6.116350382715219 L 210.62591639813687,11.222565043297022 L 209.89195435221103,8.313733711792842 A 369.18205328752634 369.18205328752634 0 0 1 143.82290678736524,18.73552587804903"/><text text-anchor="middle" pointer-events="none" font-size="8px" fill="#000000" x="116.87199192936089" y="22.023139733259768" font-family="Helvetica Neue, Helvetica, Arial, sans-serif">FAMILY_REL</text></g><g class="relationship" transform="translate(-268.9752559842619 113.92153850077672) rotate(275.07997010422247)"><path class="b-outline" fill="#A5ABB6" stroke="none" d="M 24.018736134675446,-6.953439040707552 L 24.277555179777966,-5.987513214418485 A 368.18205328752634 368.18205328752634 0 0 1 98.7998934524041,-17.946693098920093 L 98.74348062891725,-18.94510062761077 A 369.18205328752634 369.18205328752634 0 0 0 24.018736134675446,-6.953439040707552 Z M 134.99970362609247,-19.21043819162179 L 134.95790955497458,-18.211311945535044 A 368.18205328752634 368.18205328752634 0 0 1 209.64730033690245,-7.344123267958117 L 208.9133382909766,-4.435291936453938 L 216.55690045139983,-6.116350382715219 L 210.62591639813687,-11.222565043297022 L 209.89195435221103,-8.313733711792842 A 369.18205328752634 369.18205328752634 0 0 0 134.99970362609247,-19.21043819162179"/><text text-anchor="middle" pointer-events="none" font-size="8px" fill="#000000" x="116.8719919293609" y="-16.023139733259768" font-family="Helvetica Neue, Helvetica, Arial, sans-serif">KNOWS</text></g><g class="relationship" transform="translate(-168.87521575950905 16.86015280534038) rotate(495.88297341251473)"><path class="b-outline" fill="#A5ABB6" stroke="none" d="M 24.018736134675446,6.953439040707552 L 24.277555179777966,5.987513214418485 A 170.02997509345767 170.02997509345767 0 0 0 40.34212096041357,9.46942395403724 L 40.17778270184181,10.455827997403645 A 171.02997509345767 171.02997509345767 0 0 1 24.018736134675446,6.953439040707552 Z M 92.20187757410753,11.10055305053504 L 92.06203468055179,10.11037934601552 A 170.02997509345767 170.02997509345767 0 0 0 108.20795487428485,7.027647243376446 L 107.50354842100974,4.111517694027794 L 115.12965823164423,5.870053777292623 L 109.14716347865168,10.915819975841316 L 108.44275702537657,7.9996904264926645 A 171.02997509345767 171.02997509345767 0 0 1 92.20187757410753,11.10055305053504"/><text text-anchor="middle" pointer-events="none" font-size="8px" fill="#000000" x="66.17136657726924" y="15.268050471483548" transform="rotate(180 66.17136657726924 12.268050471483548)" font-family="Helvetica Neue, Helvetica, Arial, sans-serif">KNOWS_LW</text></g><g class="relationship" transform="translate(-168.87521575950905 16.86015280534038) rotate(495.88297341251473)"><path class="b-outline" fill="#A5ABB6" stroke="none" d="M 24.018736134675446,-6.953439040707552 L 24.277555179777966,-5.987513214418485 A 170.02997509345767 170.02997509345767 0 0 1 48.166522911145094,-10.586761772348012 L 48.048202432358515,-11.579737232417244 A 171.02997509345767 171.02997509345767 0 0 0 24.018736134675446,-6.953439040707552 Z M 84.30602245651883,-12.029073736952341 L 84.21234606163254,-11.03347103856251 A 170.02997509345767 170.02997509345767 0 0 1 108.20795487428485,-7.027647243376446 L 107.50354842100974,-4.111517694027794 L 115.12965823164423,-5.870053777292623 L 109.14716347865168,-10.915819975841316 L 108.44275702537657,-7.9996904264926645 A 171.02997509345767 171.02997509345767 0 0 0 84.30602245651883,-12.029073736952341"/><text text-anchor="middle" pointer-events="none" font-size="8px" fill="#000000" x="66.1713665772692" y="-9.26805047148352" transform="rotate(180 66.1713665772692 -12.26805047148352)" font-family="Helvetica Neue, Helvetica, Arial, sans-serif">KNOWS</text></g><g class="relationship" transform="translate(-0.8791159132898598 224.71132351267784) rotate(202.4526884498764)"><path class="b-outline" fill="#A5ABB6" stroke="none" d="M 24.018736134675446,6.953439040707552 L 24.277555179777966,5.987513214418485 A 463.9447731979451 463.9447731979451 0 0 0 123.43902640400971,21.32431841214759 L 123.39394286570193,22.323301632514017 A 464.9447731979451 464.9447731979451 0 0 1 24.018736134675446,6.953439040707552 Z M 159.64573001272313,22.54455518382514 L 159.61284345815798,21.545096092851963 A 463.9447731979451 463.9447731979451 0 0 0 258.95412910333795,7.419801922821631 L 258.21310018762733,4.512762854270827 L 265.86072508257496,6.1752409642552974 L 259.9421676576188,11.295854014222703 L 259.2011387419082,8.3888149456719 A 464.9447731979451 464.9447731979451 0 0 1 159.64573001272313,22.54455518382514"/><text text-anchor="middle" pointer-events="none" font-size="8px" fill="#000000" x="141.52073074988826" y="25.287398058405756" transform="rotate(180 141.52073074988826 22.287398058405756)" font-family="Helvetica Neue, Helvetica, Arial, sans-serif">KNOWS</text></g><g class="relationship" transform="translate(-0.8791159132898598 224.71132351267784) rotate(202.4526884498764)"><path class="b-outline" fill="#A5ABB6" stroke="none" d="M 24.018736134675446,-6.953439040707552 L 24.277555179777966,-5.987513214418485 A 463.9447731979451 463.9447731979451 0 0 1 115.67735534716584,-20.908861037609483 L 115.61554207828401,-21.90694876911914 A 464.9447731979451 464.9447731979451 0 0 0 24.018736134675446,-6.953439040707552 Z M 167.42863335508164,-22.22317677749038 L 167.37900738587845,-21.224408904969096 A 463.9447731979451 463.9447731979451 0 0 1 258.95412910333795,-7.419801922821631 L 258.21310018762733,-4.512762854270827 L 265.86072508257496,-6.1752409642552974 L 259.9421676576188,-11.295854014222703 L 259.2011387419082,-8.3888149456719 A 464.9447731979451 464.9447731979451 0 0 0 167.42863335508164,-22.22317677749038"/><text text-anchor="middle" pointer-events="none" font-size="8px" fill="#000000" x="141.52073074988803" y="-19.287398058405756" transform="rotate(180 141.52073074988803 -22.287398058405756)" font-family="Helvetica Neue, Helvetica, Arial, sans-serif">KNOWS_SN</text></g><g class="relationship" transform="translate(-0.8791159132898598 224.71132351267784) rotate(252.72846176918978)"><path class="b-outline" fill="#A5ABB6" stroke="none" d="M 24.018736134675446,6.953439040707552 L 24.277555179777966,5.987513214418485 A 362.51468494602886 362.51468494602886 0 0 0 89.59125042661825,17.216918408590914 L 89.51259979388381,18.213820649520528 A 363.51468494602886 363.51468494602886 0 0 1 24.018736134675446,6.953439040707552 Z M 141.32370330895975,18.597510449768436 L 141.25982571474574,17.599552708700514 A 362.51468494602886 362.51468494602886 0 0 0 206.73266821993664,7.3386939677144225 L 205.99921317278472,4.429734756276877 L 213.64248222114958,6.112125392932827 L 207.71060828280588,11.21730624963115 L 206.97715323565396,8.308347038193604 A 363.51468494602886 363.51468494602886 0 0 1 141.32370330895975,18.597510449768436"/><text text-anchor="middle" pointer-events="none" font-size="8px" fill="#000000" x="115.41500950798905" y="21.82994771048527" transform="rotate(180 115.41500950798905 18.82994771048527)" font-family="Helvetica Neue, Helvetica, Arial, sans-serif">KNOWS_SN</text></g><g class="relationship" transform="translate(-0.8791159132898598 224.71132351267784) rotate(252.72846176918978)"><path class="b-outline" fill="#A5ABB6" stroke="none" d="M 24.018736134675446,-6.953439040707552 L 24.277555179777966,-5.987513214418485 A 362.51468494602886 362.51468494602886 0 0 1 97.3436683123785,-17.745009061651615 L 97.2864027937034,-18.743368045369834 A 363.51468494602886 363.51468494602886 0 0 0 24.018736134675446,-6.953439040707552 Z M 133.54291017620176,-19.011867481426634 L 133.50043692534715,-18.012769877104688 A 362.51468494602886 362.51468494602886 0 0 1 206.73266821993664,-7.3386939677144225 L 205.99921317278472,-4.429734756276877 L 213.64248222114958,-6.112125392932827 L 207.71060828280588,-11.21730624963115 L 206.97715323565396,-8.308347038193604 A 363.51468494602886 363.51468494602886 0 0 0 133.54291017620176,-19.011867481426634"/><text text-anchor="middle" pointer-events="none" font-size="8px" fill="#000000" x="115.41500950798894" y="-15.829947710485271" transform="rotate(180 115.41500950798894 -18.82994771048527)" font-family="Helvetica Neue, Helvetica, Arial, sans-serif">KNOWS</text></g><g class="relationship" transform="translate(202.7126191118115 171.98075304595673) rotate(525.4793826473115)"><path class="b-outline" fill="#A5ABB6" stroke="none" d="M 24.018736134675446,6.953439040707552 L 24.277555179777966,5.987513214418485 A 308.8204697050151 308.8204697050151 0 0 0 74.78143313010757,15.105309208734184 L 74.6861520719739,16.10075961933279 A 309.8204697050151 309.8204697050151 0 0 1 24.018736134675446,6.953439040707552 Z M 128.57428144509564,16.550524463987927 L 128.49562909778186,15.553622358331609 A 308.8204697050151 308.8204697050151 0 0 0 179.1446598781891,7.280075789834528 L 178.4166788053072,4.369741864401614 L 186.0567692163462,6.066508940682304 L 180.11530130869826,11.16052102374508 L 179.3873202358164,8.250187098312166 A 309.8204697050151 309.8204697050151 0 0 1 128.57428144509564,16.550524463987927"/><text text-anchor="middle" pointer-events="none" font-size="8px" fill="#000000" x="101.62459220424654" y="19.999542442617894" transform="rotate(180 101.62459220424654 16.999542442617894)" font-family="Helvetica Neue, Helvetica, Arial, sans-serif">FAMILY_REL</text></g><g class="relationship" transform="translate(202.7126191118115 171.98075304595673) rotate(525.4793826473115)"><path class="b-outline" fill="#A5ABB6" stroke="none" d="M 24.018736134675446,-6.953439040707552 L 24.277555179777966,-5.987513214418485 A 308.8204697050151 308.8204697050151 0 0 1 83.56208943655822,-15.8195332615839 L 83.49524126150007,-16.817296420600826 A 309.8204697050151 309.8204697050151 0 0 0 24.018736134675446,-6.953439040707552 Z M 119.754459470929,-17.119925623636675 L 119.70427464863889,-16.121185675696438 A 308.8204697050151 308.8204697050151 0 0 1 179.1446598781891,-7.280075789834528 L 178.4166788053072,-4.369741864401614 L 186.0567692163462,-6.066508940682304 L 180.11530130869826,-11.16052102374508 L 179.3873202358164,-8.250187098312166 A 309.8204697050151 309.8204697050151 0 0 0 119.754459470929,-17.119925623636675"/><text text-anchor="middle" pointer-events="none" font-size="8px" fill="#000000" x="101.62459220424644" y="-13.999542442617894" transform="rotate(180 101.62459220424644 -16.999542442617894)" font-family="Helvetica Neue, Helvetica, Arial, sans-serif">KNOWS</text></g><g class="relationship" transform="translate(-71.50695165088376 -2.445924655513688) rotate(215.03155914843842)"><path class="b-outline" fill="#A5ABB6" stroke="none" d="M 24.018736134675446,-6.953439040707552 L 24.277555179777966,-5.987513214418485 A 318.1923113528875 318.1923113528875 0 0 1 85.9653265267618,-16.157805045785665 L 85.90037694093283,-17.15569359231813 A 319.1923113528875 319.1923113528875 0 0 0 24.018736134675446,-6.953439040707552 Z M 122.15912932591442,-17.45176009567848 L 122.11048359288594,-16.452944000164337 A 318.1923113528875 318.1923113528875 0 0 1 183.95610714564168,-7.2913493210837546 L 183.22707329701933,-4.381278935755784 L 190.86777701951067,-6.075282071852936 L 184.92815227713817,-11.171443168187716 L 184.19911842851582,-8.261372782859745 A 319.1923113528875 319.1923113528875 0 0 0 122.15912932591442,-17.45176009567848"/><text text-anchor="middle" pointer-events="none" font-size="8px" fill="#000000" x="104.02962817994369" y="-14.319029680481151" transform="rotate(180 104.02962817994369 -17.31902968048115)" font-family="Helvetica Neue, Helvetica, Arial, sans-serif">KNOWS</text></g><g class="relationship" transform="translate(-71.50695165088376 -2.445924655513688) rotate(215.03155914843842)"><path class="b-outline" fill="#A5ABB6" stroke="none" d="M 24.018736134675446,6.953439040707552 L 24.277555179777966,5.987513214418485 A 318.1923113528875 318.1923113528875 0 0 0 77.18259993384214,15.463938817981784 L 77.09004840327862,16.459646713998666 A 319.1923113528875 319.1923113528875 0 0 1 24.018736134675446,6.953439040707552 Z M 130.97964932929136,16.899675801162118 L 130.9033697226085,15.902589334698803 A 318.1923113528875 318.1923113528875 0 0 0 183.95610714564168,7.2913493210837546 L 183.22707329701933,4.381278935755784 L 190.86777701951067,6.075282071852936 L 184.92815227713817,11.171443168187716 L 184.19911842851582,8.261372782859745 A 319.1923113528875 319.1923113528875 0 0 1 130.97964932929136,16.899675801162118"/><text text-anchor="middle" pointer-events="none" font-size="8px" fill="#000000" x="104.02962817994373" y="20.31902968048115" transform="rotate(180 104.02962817994373 17.31902968048115)" font-family="Helvetica Neue, Helvetica, Arial, sans-serif">FAMILY_REL</text></g><g class="relationship" transform="translate(-71.50695165088376 -2.445924655513688) rotate(509.48928612579266)"><path class="b-outline" fill="#A5ABB6" stroke="none" d="M 24.018736134675446,-6.953439040707552 L 24.277555179777966,-5.987513214418485 A 345.6266094348914 345.6266094348914 0 0 1 84.21801646347666,-16.50198353088649 L 84.13262290023071,-17.49833082945065 A 346.6266094348914 346.6266094348914 0 0 0 24.018736134675446,-6.953439040707552 Z M 138.02551267764775,-17.912115770294065 L 137.9554280164571,-16.914574723386295 A 345.6266094348914 345.6266094348914 0 0 1 198.05027156158704,-7.3217250829082205 L 197.31840111182296,-4.412366795456823 L 204.960752640601,-6.098920414700615 L 199.02609882793914,-11.200869466176751 L 198.29422837817506,-8.291511178725353 A 346.6266094348914 346.6266094348914 0 0 0 138.02551267764775,-17.912115770294065"/><text text-anchor="middle" pointer-events="none" font-size="8px" fill="#000000" x="111.07485238912194" y="-15.254252651345212" transform="rotate(180 111.07485238912194 -18.25425265134521)" font-family="Helvetica Neue, Helvetica, Arial, sans-serif">FAMILY_REL</text></g><g class="relationship" transform="translate(-71.50695165088376 -2.445924655513688) rotate(509.48928612579266)"><path class="b-outline" fill="#A5ABB6" stroke="none" d="M 24.018736134675446,6.953439040707552 L 24.277555179777966,5.987513214418485 A 345.6266094348914 345.6266094348914 0 0 0 93.00594239435807,17.142440640150028 L 92.94597489985506,18.1406409705462 A 346.6266094348914 346.6266094348914 0 0 1 24.018736134675446,6.953439040707552 Z M 129.2033370953372,18.4190218577682 L 129.15870395847324,17.42001841278227 A 345.6266094348914 345.6266094348914 0 0 0 198.05027156158704,7.3217250829082205 L 197.31840111182296,4.412366795456823 L 204.960752640601,6.098920414700615 L 199.02609882793914,11.200869466176751 L 198.29422837817506,8.291511178725353 A 346.6266094348914 346.6266094348914 0 0 1 129.2033370953372,18.4190218577682"/><text text-anchor="middle" pointer-events="none" font-size="8px" fill="#000000" x="111.074852389122" y="21.25425265134521" transform="rotate(180 111.074852389122 18.25425265134521)" font-family="Helvetica Neue, Helvetica, Arial, sans-serif">KNOWS</text></g><g class="relationship" transform="translate(170.07141032943196 -37.19492752401906) rotate(190.61568698254536)"><path class="b-outline" fill="#A5ABB6" stroke="none" d="M 24.018736134675446,-6.953439040707552 L 24.277555179777966,-5.987513214418485 A 230.78527593897135 230.78527593897135 0 0 1 63.60312978933702,-12.947408403865637 L 63.51470971986047,-13.943491679156296 A 231.78527593897135 231.78527593897135 0 0 0 24.018736134675446,-6.953439040707552 Z M 99.77668791610662,-14.314405843754571 L 99.70866155882311,-13.316722319426958 A 230.78527593897135 230.78527593897135 0 0 1 139.16837494522278,-7.162700960731877 L 138.45135526363202,-4.249647103314974 L 146.08500389279402,-5.9751640132562684 L 140.12440118734378,-11.04677277062108 L 139.40738150575302,-8.133718913204177 A 231.78527593897135 231.78527593897135 0 0 0 99.77668791610662,-14.314405843754571"/><text text-anchor="middle" pointer-events="none" font-size="8px" fill="#000000" x="81.64354788235973" y="-11.339232401545047" transform="rotate(180 81.64354788235973 -14.339232401545047)" font-family="Helvetica Neue, Helvetica, Arial, sans-serif">KNOWS</text></g><g class="relationship" transform="translate(170.07141032943196 -37.19492752401906) rotate(190.61568698254536)"><path class="b-outline" fill="#A5ABB6" stroke="none" d="M 24.018736134675446,6.953439040707552 L 24.277555179777966,5.987513214418485 A 230.78527593897135 230.78527593897135 0 0 0 55.73704674381623,12.11305893282119 L 55.614542684303856,13.105526945103179 A 231.78527593897135 231.78527593897135 0 0 1 24.018736134675446,6.953439040707552 Z M 107.69234282772157,13.638216960793244 L 107.5901656604716,12.643450743789089 A 230.78527593897135 230.78527593897135 0 0 0 139.16837494522278,7.162700960731877 L 138.45135526363202,4.249647103314974 L 146.08500389279402,5.9751640132562684 L 140.12440118734378,11.04677277062108 L 139.40738150575302,8.133718913204177 A 231.78527593897135 231.78527593897135 0 0 1 107.69234282772157,13.638216960793244"/><text text-anchor="middle" pointer-events="none" font-size="8px" fill="#000000" x="81.6435478823598" y="17.339232401545047" transform="rotate(180 81.6435478823598 14.339232401545047)" font-family="Helvetica Neue, Helvetica, Arial, sans-serif">KNOWS_LW</text></g><g class="relationship" transform="translate(170.07141032943196 -37.19492752401906) rotate(531.8146316880432)"><path class="b-outline" fill="#A5ABB6" stroke="none" d="M 24.018736134675446,6.953439040707552 L 24.277555179777966,5.987513214418485 A 374.537390031721 374.537390031721 0 0 0 100.43320148928322,18.172567351728162 L 100.37771500412367,19.171026790045346 A 375.537390031721 375.537390031721 0 0 1 24.018736134675446,6.953439040707552 Z M 136.63362113493312,19.432905441961054 L 136.5925635552587,18.433748659893638 A 374.537390031721 374.537390031721 0 0 0 212.9162814155159,7.350062398749086 L 212.18176476350868,4.441371062783006 L 219.8256473081046,6.120972100059977 L 213.8956369515255,11.228317513370525 L 213.16112029951827,8.319626177404446 A 375.537390031721 375.537390031721 0 0 1 136.63362113493312,19.432905441961054"/><text text-anchor="middle" pointer-events="none" font-size="8px" fill="#000000" x="118.50611722675626" y="22.239782344350942" transform="rotate(180 118.50611722675626 19.239782344350942)" font-family="Helvetica Neue, Helvetica, Arial, sans-serif">KNOWS</text></g><g class="relationship" transform="translate(170.07141032943196 -37.19492752401906) rotate(531.8146316880432)"><path class="b-outline" fill="#A5ABB6" stroke="none" d="M 24.018736134675446,-6.953439040707552 L 24.277555179777966,-5.987513214418485 A 374.537390031721 374.537390031721 0 0 1 92.53346480291727,-17.649757858810744 L 92.45688633362843,-18.64682141648467 A 375.537390031721 375.537390031721 0 0 0 24.018736134675446,-6.953439040707552 Z M 144.56119568832938,-19.023174064893908 L 144.4990281612467,-18.02510833630862 A 374.537390031721 374.537390031721 0 0 1 212.9162814155159,-7.350062398749086 L 212.18176476350868,-4.441371062783006 L 219.8256473081046,-6.120972100059977 L 213.8956369515255,-11.228317513370525 L 213.16112029951827,-8.319626177404446 A 375.537390031721 375.537390031721 0 0 0 144.56119568832938,-19.023174064893908"/><text text-anchor="middle" pointer-events="none" font-size="8px" fill="#000000" x="118.50611722675626" y="-16.239782344350942" transform="rotate(180 118.50611722675626 -19.239782344350942)" font-family="Helvetica Neue, Helvetica, Arial, sans-serif">KNOWS_LW</text></g><g class="relationship" transform="translate(170.07141032943196 -37.19492752401906) rotate(530.9387965902274)"><path class="b-outline" fill="#A5ABB6" stroke="none" d="M 24.018736134675446,-6.953439040707552 L 24.277555179777966,-5.987513214418485 A 567.0222364635435 567.0222364635435 0 0 1 150.00798959741348,-24.91836654928659 L 149.97090865415652,-25.917678814620672 A 568.0222364635435 568.0222364635435 0 0 0 24.018736134675446,-6.953439040707552 Z M 186.21883870895257,-26.105316526142815 L 186.19210537219038,-25.105673925657243 A 567.0222364635435 567.0222364635435 0 0 1 312.11178795289635,-7.47748951523415 L 311.3653723633088,-4.571828873035774 L 319.01606538295715,-6.220129913229604 L 313.10700873901305,-11.351703704831984 L 312.3605931494255,-8.446043062633608 A 568.0222364635435 568.0222364635435 0 0 0 186.21883870895257,-26.105316526142815"/><text text-anchor="middle" pointer-events="none" font-size="8px" fill="#000000" x="168.09596475414537" y="-22.800723819878385" transform="rotate(180 168.09596475414537 -25.800723819878385)" font-family="Helvetica Neue, Helvetica, Arial, sans-serif">KNOWS</text></g><g class="relationship" transform="translate(170.07141032943196 -37.19492752401906) rotate(530.9387965902274)"><path class="b-outline" fill="#A5ABB6" stroke="none" d="M 24.018736134675446,6.953439040707552 L 24.277555179777966,5.987513214418485 A 567.0222364635435 567.0222364635435 0 0 0 141.2005051078627,24.522964151699625 L 141.14789129142514,25.521579085655503 A 568.0222364635435 568.0222364635435 0 0 1 24.018736134675446,6.953439040707552 Z M 195.04548395420267,25.800580422518237 L 195.00321135739284,24.801474308254683 A 567.0222364635435 567.0222364635435 0 0 0 312.11178795289635,7.47748951523415 L 311.3653723633088,4.571828873035774 L 319.01606538295715,6.220129913229604 L 313.10700873901305,11.351703704831984 L 312.3605931494255,8.446043062633608 A 568.0222364635435 568.0222364635435 0 0 1 195.04548395420267,25.800580422518237"/><text text-anchor="middle" pointer-events="none" font-size="8px" fill="#000000" x="168.09596475414546" y="28.800723819878385" transform="rotate(180 168.09596475414546 25.800723819878385)" font-family="Helvetica Neue, Helvetica, Arial, sans-serif">FAMILY_REL</text></g><g class="relationship" transform="translate(2.626685569939731 -68.5788086723831) rotate(498.2645937706609)"><path class="b-outline" fill="#A5ABB6" stroke="none" d="M 24.018736134675446,6.953439040707552 L 24.277555179777966,5.987513214418485 A 90.35886955235681 90.35886955235681 0 0 0 28.262059614408802,6.9588032026178155 L 28.04733700891836,7.935478277907137 A 91.35886955235681 91.35886955235681 0 0 1 24.018736134675446,6.953439040707552 Z M 64.22333303106602,8.553173713429814 L 64.04207880147298,7.569737439818425 A 90.35886955235681 90.35886955235681 0 0 0 68.0574199417644,6.735042670545234 L 67.38034412633205,3.8124465061467676 L 74.9896569612662,5.64229846193618 L 68.96018769567418,10.631837556409856 L 68.28311188024183,7.70924139201139 A 91.35886955235681 91.35886955235681 0 0 1 64.22333303106602,8.553173713429814"/><text text-anchor="middle" pointer-events="none" font-size="8px" fill="#000000" x="46.112986771745305" y="12.55317513585561" transform="rotate(180 46.112986771745305 9.55317513585561)" font-family="Helvetica Neue, Helvetica, Arial, sans-serif">KNOWS</text></g><g class="relationship" transform="translate(2.626685569939731 -68.5788086723831) rotate(498.2645937706609)"><path class="b-outline" fill="#A5ABB6" stroke="none" d="M 24.018736134675446,-6.953439040707552 L 24.277555179777966,-5.987513214418485 A 90.35886955235681 90.35886955235681 0 0 1 24.396911887653765,-6.019407309413964 L 24.139413761111502,-6.985686107084305 A 91.35886955235681 91.35886955235681 0 0 0 24.018736134675446,-6.953439040707552 Z M 68.16140370050246,-7.73734978571639 L 67.93704396086171,-6.762843394137391 A 90.35886955235681 90.35886955235681 0 0 1 68.0574199417644,-6.735042670545234 L 67.38034412633205,-3.8124465061467676 L 74.9896569612662,-5.64229846193618 L 68.96018769567418,-10.631837556409856 L 68.28311188024183,-7.70924139201139 A 91.35886955235681 91.35886955235681 0 0 0 68.16140370050246,-7.73734978571639"/><text text-anchor="middle" pointer-events="none" font-size="8px" fill="#000000" x="46.112986771745284" y="-6.553175135855611" transform="rotate(180 46.112986771745284 -9.55317513585561)" font-family="Helvetica Neue, Helvetica, Arial, sans-serif">KNOWS…</text></g><g class="relationship" transform="translate(2.626685569939731 -68.5788086723831) rotate(450.6848442574084)"><path class="b-outline" fill="#A5ABB6" stroke="none" d="M 24.018736134675446,-6.953439040707552 L 24.277555179777966,-5.987513214418485 A 470.20427645977344 470.20427645977344 0 0 1 125.05130474287247,-21.54354449370703 L 125.00680478121564,-22.542553879755303 A 471.20427645977344 471.20427645977344 0 0 0 24.018736134675446,-6.953439040707552 Z M 161.25833069117542,-22.7614279283643 L 161.22589687332092,-21.761954043032915 A 470.20427645977344 470.20427645977344 0 0 1 262.1801365650004,-7.423885887161421 L 261.43872629695454,-4.516944055195021 L 269.0865692175963,-6.178418900382166 L 263.1686835890615,-11.29980832978329 L 262.42727332101566,-8.392866497816888 A 471.20427645977344 471.20427645977344 0 0 0 161.25833069117542,-22.7614279283643"/><text text-anchor="middle" pointer-events="none" font-size="8px" fill="#000000" x="143.13348083789845" y="-19.500756300175283" transform="rotate(180 143.13348083789845 -22.500756300175283)" font-family="Helvetica Neue, Helvetica, Arial, sans-serif">KNOWS</text></g><g class="relationship" transform="translate(2.626685569939731 -68.5788086723831) rotate(450.6848442574084)"><path class="b-outline" fill="#A5ABB6" stroke="none" d="M 24.018736134675446,6.953439040707552 L 24.277555179777966,5.987513214418485 A 470.20427645977344 470.20427645977344 0 0 0 116.24938403611111,21.068766200775997 L 116.18616471959635,22.066765859102247 A 471.20427645977344 471.20427645977344 0 0 1 24.018736134675446,6.953439040707552 Z M 170.08407276894644,22.392182598127704 L 170.03290876862397,21.39349233329534 A 470.20427645977344 470.20427645977344 0 0 0 262.1801365650004,7.423885887161421 L 261.43872629695454,4.516944055195021 L 269.0865692175963,6.178418900382166 L 263.1686835890615,11.29980832978329 L 262.42727332101566,8.392866497816888 A 471.20427645977344 471.20427645977344 0 0 1 170.08407276894644,22.392182598127704"/><text text-anchor="middle" pointer-events="none" font-size="8px" fill="#000000" x="143.13348083789842" y="25.500756300175283" transform="rotate(180 143.13348083789842 22.500756300175283)" font-family="Helvetica Neue, Helvetica, Arial, sans-serif">FAMILY_REL</text></g><g class="relationship" transform="translate(2.626685569939731 -68.5788086723831) rotate(410.24793635684335)"><path class="b-outline" fill="#A5ABB6" stroke="none" d="M 24.018736134675446,-6.953439040707552 L 24.277555179777966,-5.987513214418485 A 508.20198606726444 508.20198606726444 0 0 1 126.03756081722128,-22.43123945736079 L 125.97897712819227,-23.429521958148882 A 509.20198606726444 509.20198606726444 0 0 0 24.018736134675446,-6.953439040707552 Z M 179.87696087356295,-23.73500230172442 L 179.82969661772896,-22.73611988115607 A 508.20198606726444 508.20198606726444 0 0 1 281.76955660997237,-7.446913726252656 L 281.0259960643802,-4.540521165871535 L 288.6750660084603,-6.196337879934529 L 282.7609706707619,-11.322103806760817 L 282.0174101251697,-8.415711246379695 A 509.20198606726444 509.20198606726444 0 0 0 179.87696087356295,-23.73500230172442"/><text text-anchor="middle" pointer-events="none" font-size="8px" fill="#000000" x="152.92675812322236" y="-20.795905546127187" font-family="Helvetica Neue, Helvetica, Arial, sans-serif">FAMILY_REL</text></g><g class="relationship" transform="translate(2.626685569939731 -68.5788086723831) rotate(410.24793635684335)"><path class="b-outline" fill="#A5ABB6" stroke="none" d="M 24.018736134675446,6.953439040707552 L 24.277555179777966,5.987513214418485 A 508.20198606726444 508.20198606726444 0 0 0 134.84200344136937,22.87133436504854 L 134.80074444383217,23.870482850070744 A 509.20198606726444 509.20198606726444 0 0 1 24.018736134675446,6.953439040707552 Z M 171.0507619576512,24.075938917909127 L 171.02083109633926,23.07638694650342 A 508.20198606726444 508.20198606726444 0 0 0 281.76955660997237,7.446913726252656 L 281.0259960643802,4.540521165871535 L 288.6750660084603,6.196337879934529 L 282.7609706707619,11.322103806760817 L 282.0174101251697,8.415711246379695 A 509.20198606726444 509.20198606726444 0 0 1 171.0507619576512,24.075938917909127"/><text text-anchor="middle" pointer-events="none" font-size="8px" fill="#000000" x="152.92675812322236" y="26.795905546127187" font-family="Helvetica Neue, Helvetica, Arial, sans-serif">KNOWS</text></g></g><g class="layer nodes"><g class="node" aria-label="graph-node861" transform="translate(-247.65360937446366,-125.92979127470727)"><circle class="b-outline" cx="0" cy="0" r="25" fill="#C990C0" stroke="#b261a5" stroke-width="2px"/><text class="caption" text-anchor="middle" pointer-events="none" x="0" y="5" font-size="10px" fill="#FFFFFF" font-family="Helvetica Neue, Helvetica, Arial, sans-serif"> Raymond</text></g><g class="node" aria-label="graph-node31868" transform="translate(-318.57155947486854,-271.5838772286905)"><circle class="b-outline" cx="0" cy="0" r="25" fill="#F79767" stroke="#f36924" stroke-width="2px"/><text class="caption" text-anchor="middle" pointer-events="none" x="0" y="5" font-size="10px" fill="#FFFFFF" font-family="Helvetica Neue, Helvetica, Arial, sans-serif"> 15/08/20…</text></g><g class="node" aria-label="graph-node31799" transform="translate(-390.23160123717673,-201.94102327578545)"><circle class="b-outline" cx="0" cy="0" r="25" fill="#F79767" stroke="#f36924" stroke-width="2px"/><text class="caption" text-anchor="middle" pointer-events="none" x="0" y="5" font-size="10px" fill="#FFFFFF" font-family="Helvetica Neue, Helvetica, Arial, sans-serif"> 1/08/2017</text></g><g class="node" aria-label="graph-node863" transform="translate(-268.9752559842619,113.92153850077672)"><circle class="b-outline" cx="0" cy="0" r="25" fill="#C990C0" stroke="#b261a5" stroke-width="2px"/><text class="caption" text-anchor="middle" pointer-events="none" x="0" y="5" font-size="10px" fill="#FFFFFF" font-family="Helvetica Neue, Helvetica, Arial, sans-serif"> Kathleen</text></g><g class="node" aria-label="graph-node32204" transform="translate(-429.50582818292355,119.40590908955934)"><circle class="b-outline" cx="0" cy="0" r="25" fill="#F79767" stroke="#f36924" stroke-width="2px"/><text class="caption" text-anchor="middle" pointer-events="none" x="0" y="5" font-size="10px" fill="#FFFFFF" font-family="Helvetica Neue, Helvetica, Arial, sans-serif"> 26/08/20…</text></g><g class="node" aria-label="graph-node31874" transform="translate(-397.1310564528082,213.39124982865533)"><circle class="b-outline" cx="0" cy="0" r="25" fill="#F79767" stroke="#f36924" stroke-width="2px"/><text class="caption" text-anchor="middle" pointer-events="none" x="0" y="5" font-size="10px" fill="#FFFFFF" font-family="Helvetica Neue, Helvetica, Arial, sans-serif"> 21/08/20…</text></g><g class="node" aria-label="graph-node31835" transform="translate(-314.3566401993471,268.590328504533)"><circle class="b-outline" cx="0" cy="0" r="25" fill="#F79767" stroke="#f36924" stroke-width="2px"/><text class="caption" text-anchor="middle" pointer-events="none" x="0" y="5" font-size="10px" fill="#FFFFFF" font-family="Helvetica Neue, Helvetica, Arial, sans-serif"> 31/08/20…</text></g><g class="node" aria-label="graph-node867" transform="translate(-168.87521575950905,16.86015280534038)"><circle class="b-outline" cx="0" cy="0" r="25" fill="#C990C0" stroke="#b261a5" stroke-width="2px"/><text class="caption" text-anchor="middle" pointer-events="none" x="0" y="5" font-size="10px" fill="#FFFFFF" font-family="Helvetica Neue, Helvetica, Arial, sans-serif"> Diana</text></g><g class="node" aria-label="graph-node37292" transform="translate(-319.7158368031305,-58.251457456882925)"><circle class="b-outline" cx="0" cy="0" r="25" fill="#F79767" stroke="#f36924" stroke-width="2px"/><text class="caption" text-anchor="middle" pointer-events="none" x="0" y="5" font-size="10px" fill="#FFFFFF" font-family="Helvetica Neue, Helvetica, Arial, sans-serif"> 20/08/20…</text></g><g class="node" aria-label="graph-node45818" transform="translate(-334.70548198248946,40.01188863866962)"><circle class="b-outline" cx="0" cy="0" r="25" fill="#F79767" stroke="#f36924" stroke-width="2px"/><text class="caption" text-anchor="middle" pointer-events="none" x="0" y="5" font-size="10px" fill="#FFFFFF" font-family="Helvetica Neue, Helvetica, Arial, sans-serif"> 25/08/20…</text></g><g class="node" aria-label="graph-node49059" transform="translate(-207.60739345318038,191.21947510203762)"><circle class="b-outline" cx="0" cy="0" r="25" fill="#F79767" stroke="#f36924" stroke-width="2px"/><text class="caption" text-anchor="middle" pointer-events="none" x="0" y="5" font-size="10px" fill="#FFFFFF" font-family="Helvetica Neue, Helvetica, Arial, sans-serif"> 27/08/20…</text></g><g class="node" aria-label="graph-node874" transform="translate(-0.8791159132898598,224.71132351267784)"><circle class="b-outline" cx="0" cy="0" r="25" fill="#C990C0" stroke="#b261a5" stroke-width="2px"/><text class="caption" text-anchor="middle" pointer-events="none" x="0" y="5" font-size="10px" fill="#FFFFFF" font-family="Helvetica Neue, Helvetica, Arial, sans-serif"> Alan</text></g><g class="node" aria-label="graph-node31908" transform="translate(102.11035393386283,341.2415981904306)"><circle class="b-outline" cx="0" cy="0" r="25" fill="#F79767" stroke="#f36924" stroke-width="2px"/><text class="caption" text-anchor="middle" pointer-events="none" x="0" y="5" font-size="10px" fill="#FFFFFF" font-family="Helvetica Neue, Helvetica, Arial, sans-serif"> 11/08/20…</text></g><g class="node" aria-label="graph-node31882" transform="translate(-82.8920698626519,360.0478179997396)"><circle class="b-outline" cx="0" cy="0" r="25" fill="#F79767" stroke="#f36924" stroke-width="2px"/><text class="caption" text-anchor="middle" pointer-events="none" x="0" y="5" font-size="10px" fill="#FFFFFF" font-family="Helvetica Neue, Helvetica, Arial, sans-serif"> 25/08/20…</text></g><g class="node" aria-label="graph-node31875" transform="translate(13.24018024533851,385.8317140838539)"><circle class="b-outline" cx="0" cy="0" r="25" fill="#F79767" stroke="#f36924" stroke-width="2px"/><text class="caption" text-anchor="middle" pointer-events="none" x="0" y="5" font-size="10px" fill="#FFFFFF" font-family="Helvetica Neue, Helvetica, Arial, sans-serif"> 16/08/20…</text></g><g class="node" aria-label="graph-node877" transform="translate(202.7126191118115,171.98075304595673)"><circle class="b-outline" cx="0" cy="0" r="25" fill="#C990C0" stroke="#b261a5" stroke-width="2px"/><text class="caption" text-anchor="middle" pointer-events="none" x="0" y="5" font-size="10px" fill="#FFFFFF" font-family="Helvetica Neue, Helvetica, Arial, sans-serif"> Jack</text></g><g class="node" aria-label="graph-node57182" transform="translate(210.54644791390277,329.1325190731737)"><circle class="b-outline" cx="0" cy="0" r="25" fill="#F79767" stroke="#f36924" stroke-width="2px"/><text class="caption" text-anchor="middle" pointer-events="none" x="0" y="5" font-size="10px" fill="#FFFFFF" font-family="Helvetica Neue, Helvetica, Arial, sans-serif"> 25/08/20…</text></g><g class="node" aria-label="graph-node57116" transform="translate(305.8675612813387,301.8296773991708)"><circle class="b-outline" cx="0" cy="0" r="25" fill="#F79767" stroke="#f36924" stroke-width="2px"/><text class="caption" text-anchor="middle" pointer-events="none" x="0" y="5" font-size="10px" fill="#FFFFFF" font-family="Helvetica Neue, Helvetica, Arial, sans-serif"> 25/08/20…</text></g><g class="node" aria-label="graph-node57117" transform="translate(362.87889154724706,220.73300391076185)"><circle class="b-outline" cx="0" cy="0" r="25" fill="#F79767" stroke="#f36924" stroke-width="2px"/><text class="caption" text-anchor="middle" pointer-events="none" x="0" y="5" font-size="10px" fill="#FFFFFF" font-family="Helvetica Neue, Helvetica, Arial, sans-serif"> 2/08/2017</text></g><g class="node" aria-label="graph-node57478" transform="translate(359.7211534257671,121.3723952551718)"><circle class="b-outline" cx="0" cy="0" r="25" fill="#F79767" stroke="#f36924" stroke-width="2px"/><text class="caption" text-anchor="middle" pointer-events="none" x="0" y="5" font-size="10px" fill="#FFFFFF" font-family="Helvetica Neue, Helvetica, Arial, sans-serif"> 27/08/20…</text></g><g class="node" aria-label="graph-node1279" transform="translate(-71.50695165088376,-2.445924655513688)"><circle class="b-outline" cx="0" cy="0" r="25" fill="#C990C0" stroke="#b261a5" stroke-width="2px"/><text class="caption" text-anchor="middle" pointer-events="none" x="0" y="5" font-size="10px" fill="#FFFFFF" font-family="Helvetica Neue, Helvetica, Arial, sans-serif"> Phillip</text></g><g class="node" aria-label="graph-node31798" transform="translate(-49.98532380832821,138.5898798535986)"><circle class="b-outline" cx="0" cy="0" r="25" fill="#F79767" stroke="#f36924" stroke-width="2px"/><text class="caption" text-anchor="middle" pointer-events="none" x="0" y="5" font-size="10px" fill="#FFFFFF" font-family="Helvetica Neue, Helvetica, Arial, sans-serif"> 15/08/20…</text></g><g class="node" aria-label="graph-node31797" transform="translate(-146.79519416558193,113.61804467545744)"><circle class="b-outline" cx="0" cy="0" r="25" fill="#F79767" stroke="#f36924" stroke-width="2px"/><text class="caption" text-anchor="middle" pointer-events="none" x="0" y="5" font-size="10px" fill="#FFFFFF" font-family="Helvetica Neue, Helvetica, Arial, sans-serif"> 15/08/20…</text></g><g class="node" aria-label="graph-node31786" transform="translate(43.58376635601672,91.81924187382057)"><circle class="b-outline" cx="0" cy="0" r="25" fill="#F79767" stroke="#f36924" stroke-width="2px"/><text class="caption" text-anchor="middle" pointer-events="none" x="0" y="5" font-size="10px" fill="#FFFFFF" font-family="Helvetica Neue, Helvetica, Arial, sans-serif"> 26/08/20…</text></g><g class="node" aria-label="graph-node31785" transform="translate(-27.71158684161759,-209.45924090127275)"><circle class="b-outline" cx="0" cy="0" r="25" fill="#F79767" stroke="#f36924" stroke-width="2px"/><text class="caption" text-anchor="middle" pointer-events="none" x="0" y="5" font-size="10px" fill="#FFFFFF" font-family="Helvetica Neue, Helvetica, Arial, sans-serif"> 26/08/20…</text></g><g class="node" aria-label="graph-node31777" transform="translate(76.69799244300782,-2.3391313310704422)"><circle class="b-outline" cx="0" cy="0" r="25" fill="#F79767" stroke="#f36924" stroke-width="2px"/><text class="caption" text-anchor="middle" pointer-events="none" x="0" y="5" font-size="10px" fill="#FFFFFF" font-family="Helvetica Neue, Helvetica, Arial, sans-serif"> 6/08/2017</text></g><g class="node" aria-label="graph-node1283" transform="translate(170.07141032943196,-37.19492752401906)"><circle class="b-outline" cx="0" cy="0" r="25" fill="#C990C0" stroke="#b261a5" stroke-width="2px"/><text class="caption" text-anchor="middle" pointer-events="none" x="0" y="5" font-size="10px" fill="#FFFFFF" font-family="Helvetica Neue, Helvetica, Arial, sans-serif"> Jessica</text></g><g class="node" aria-label="graph-node31976" transform="translate(331.4343564106275,8.50103251400352)"><circle class="b-outline" cx="0" cy="0" r="25" fill="#F79767" stroke="#f36924" stroke-width="2px"/><text class="caption" text-anchor="middle" pointer-events="none" x="0" y="5" font-size="10px" fill="#FFFFFF" font-family="Helvetica Neue, Helvetica, Arial, sans-serif"> 16/08/20…</text></g><g class="node" aria-label="graph-node31975" transform="translate(266.2122732845515,82.91931325543032)"><circle class="b-outline" cx="0" cy="0" r="25" fill="#F79767" stroke="#f36924" stroke-width="2px"/><text class="caption" text-anchor="middle" pointer-events="none" x="0" y="5" font-size="10px" fill="#FFFFFF" font-family="Helvetica Neue, Helvetica, Arial, sans-serif"> 14/08/20…</text></g><g class="node" aria-label="graph-node31960" transform="translate(334.8705342821607,-89.96135569576025)"><circle class="b-outline" cx="0" cy="0" r="25" fill="#F79767" stroke="#f36924" stroke-width="2px"/><text class="caption" text-anchor="middle" pointer-events="none" x="0" y="5" font-size="10px" fill="#FFFFFF" font-family="Helvetica Neue, Helvetica, Arial, sans-serif"> 7/08/2017</text></g><g class="node" aria-label="graph-node31952" transform="translate(272.8367922443372,-166.90393034827997)"><circle class="b-outline" cx="0" cy="0" r="25" fill="#F79767" stroke="#f36924" stroke-width="2px"/><text class="caption" text-anchor="middle" pointer-events="none" x="0" y="5" font-size="10px" fill="#FFFFFF" font-family="Helvetica Neue, Helvetica, Arial, sans-serif"> 1/08/2017</text></g><g class="node" aria-label="graph-node31951" transform="translate(184.19298100012142,-211.4974805023087)"><circle class="b-outline" cx="0" cy="0" r="25" fill="#F79767" stroke="#f36924" stroke-width="2px"/><text class="caption" text-anchor="middle" pointer-events="none" x="0" y="5" font-size="10px" fill="#FFFFFF" font-family="Helvetica Neue, Helvetica, Arial, sans-serif"> 30/08/20…</text></g><g class="node" aria-label="graph-node1286" transform="translate(2.626685569939731,-68.5788086723831)"><circle class="b-outline" cx="0" cy="0" r="25" fill="#C990C0" stroke="#b261a5" stroke-width="2px"/><text class="caption" text-anchor="middle" pointer-events="none" x="0" y="5" font-size="10px" fill="#FFFFFF" font-family="Helvetica Neue, Helvetica, Arial, sans-serif"> Brian</text></g><g class="node" aria-label="graph-node58066" transform="translate(-100.70731909072636,-270.79544425472)"><circle class="b-outline" cx="0" cy="0" r="25" fill="#F79767" stroke="#f36924" stroke-width="2px"/><text class="caption" text-anchor="middle" pointer-events="none" x="0" y="5" font-size="10px" fill="#FFFFFF" font-family="Helvetica Neue, Helvetica, Arial, sans-serif"> 5/08/2017</text></g><g class="node" aria-label="graph-node59288" transform="translate(130.68772643611948,-128.41920050465697)"><circle class="b-outline" cx="0" cy="0" r="25" fill="#F79767" stroke="#f36924" stroke-width="2px"/><text class="caption" text-anchor="middle" pointer-events="none" x="0" y="5" font-size="10px" fill="#FFFFFF" font-family="Helvetica Neue, Helvetica, Arial, sans-serif"> 19/08/20…</text></g><g class="node" aria-label="graph-node58142" transform="translate(-146.39163039400387,-79.71669293901948)"><circle class="b-outline" cx="0" cy="0" r="25" fill="#F79767" stroke="#f36924" stroke-width="2px"/><text class="caption" text-anchor="middle" pointer-events="none" x="0" y="5" font-size="10px" fill="#FFFFFF" font-family="Helvetica Neue, Helvetica, Arial, sans-serif"> 17/08/20…</text></g><g class="node" aria-label="graph-node31936" transform="translate(-120.0256294872999,-175.71168815425463)"><circle class="b-outline" cx="0" cy="0" r="25" fill="#F79767" stroke="#f36924" stroke-width="2px"/><text class="caption" text-anchor="middle" pointer-events="none" x="0" y="5" font-size="10px" fill="#FFFFFF" font-family="Helvetica Neue, Helvetica, Arial, sans-serif"> 24/08/20…</text></g></g></svg>