<svg xmlns="http://www.w3.org/2000/svg" width="229.62274169921875" height="228.8861846923828" viewBox="-132.885986328125 -132.333984375 229.62274169921875 228.8861846923828"><title>Neo4j Graph Visualization</title><desc>Created using Neo4j (http://www.neo4j.com/)</desc><g class="layer relationships"><g class="relationship" transform="translate(3.1276462598778747 67.55220206207758) rotate(263.2499822562009)"><path class="b-outline" fill="#A5ABB6" stroke="none" d="M 25 0.5 L 58.865649069590305 0.5 L 58.865649069590305 -0.5 L 25 -0.5 Z M 106.2133053195903 0.5 L 140.0789543891806 0.5 L 140.0789543891806 3.5 L 147.0789543891806 0 L 140.0789543891806 -3.5 L 140.0789543891806 -0.5 L 106.2133053195903 -0.5 Z"/><text text-anchor="middle" pointer-events="none" font-size="8px" fill="#000000" x="82.5394771945903" y="3" transform="rotate(180 82.5394771945903 0)" font-family="Helvetica Neue, Helvetica, Arial, sans-serif">PARTY_TO</text></g><g class="relationship" transform="translate(3.1276462598778747 67.55220206207758) rotate(213.07090578957536)"><path class="b-outline" fill="#A5ABB6" stroke="none" d="M 25 0.5 L 36.67708841521896 0.5 L 36.67708841521896 -0.5 L 25 -0.5 Z M 84.02474466521896 0.5 L 95.70183308043792 0.5 L 95.70183308043792 3.5 L 102.70183308043792 0 L 95.70183308043792 -3.5 L 95.70183308043792 -0.5 L 84.02474466521896 -0.5 Z"/><text text-anchor="middle" pointer-events="none" font-size="8px" fill="#000000" x="60.35091654021896" y="3" transform="rotate(180 60.35091654021896 0)" font-family="Helvetica Neue, Helvetica, Arial, sans-serif">PARTY_TO</text></g><g class="relationship" transform="translate(67.73674300900193 -8.05604568927643) rotate(228.31833422747508)"><path class="b-outline" fill="#A5ABB6" stroke="none" d="M 25 0.5 L 46.17315409842734 0.5 L 46.17315409842734 -0.5 L 25 -0.5 Z M 74.39971659842735 0.5 L 95.57287069685468 0.5 L 95.57287069685468 3.5 L 102.57287069685468 0 L 95.57287069685468 -3.5 L 95.57287069685468 -0.5 L 74.39971659842735 -0.5 Z"/><text text-anchor="middle" pointer-events="none" font-size="8px" fill="#000000" x="60.28643534842734" y="3" transform="rotate(180 60.28643534842734 0)" font-family="Helvetica Neue, Helvetica, Arial, sans-serif">NEAR</text></g><g class="relationship" transform="translate(-17.098119117642778 -103.33397338394026) rotate(490.6153362972867)"><path class="b-outline" fill="#A5ABB6" stroke="none" d="M 25 0.5 L 49.046364129959954 0.5 L 49.046364129959954 -0.5 L 25 -0.5 Z M 77.27292662995995 0.5 L 101.31929075991991 0.5 L 101.31929075991991 3.5 L 108.31929075991991 0 L 101.31929075991991 -3.5 L 101.31929075991991 -0.5 L 77.27292662995995 -0.5 Z"/><text text-anchor="middle" pointer-events="none" font-size="8px" fill="#000000" x="63.159645379959954" y="3" transform="rotate(180 63.159645379959954 0)" font-family="Helvetica Neue, Helvetica, Arial, sans-serif">NEAR</text></g><g class="relationship" transform="translate(67.73674300900193 -8.05604568927643) rotate(538.0229541829651)"><path class="b-outline" fill="#A5ABB6" stroke="none" d="M 25 0.5 L 68.24918574688114 0.5 L 68.24918574688114 -0.5 L 25 -0.5 Z M 96.47574824688114 0.5 L 139.72493399376228 0.5 L 139.72493399376228 3.5 L 146.72493399376228 0 L 139.72493399376228 -3.5 L 139.72493399376228 -0.5 L 96.47574824688114 -0.5 Z"/><text text-anchor="middle" pointer-events="none" font-size="8px" fill="#000000" x="82.36246699688114" y="3" transform="rotate(180 82.36246699688114 0)" font-family="Helvetica Neue, Helvetica, Arial, sans-serif">NEAR</text></g></g><g class="layer nodes"><g class="node" aria-label="graph-node302" transform="translate(3.1276462598778747,67.55220206207758)"><circle class="b-outline" cx="0" cy="0" r="25" fill="#F79767" stroke="#f36924" stroke-width="2px"/><text class="caption" text-anchor="middle" pointer-events="none" x="0" y="5" font-size="10px" fill="#FFFFFF" font-family="Helvetica Neue, Helvetica, Arial, sans-serif"> 1088</text></g><g class="node" aria-label="graph-node369" transform="translate(67.73674300900193,-8.05604568927643)"><circle class="b-outline" cx="0" cy="0" r="25" fill="#57C7E3" stroke="#23b3d7" stroke-width="2px"/><text class="caption" text-anchor="middle" pointer-events="none" x="0" y="5" font-size="10px" fill="#2A2C34" font-family="Helvetica Neue, Helvetica, Arial, sans-serif"> 1325</text></g><g class="node" aria-label="graph-node371" transform="translate(-17.098119117642778,-103.33397338394026)"><circle class="b-outline" cx="0" cy="0" r="25" fill="#57C7E3" stroke="#23b3d7" stroke-width="2px"/><text class="caption" text-anchor="middle" pointer-events="none" x="0" y="5" font-size="10px" fill="#2A2C34" font-family="Helvetica Neue, Helvetica, Arial, sans-serif"> 1327</text></g><g class="node" aria-label="graph-node372" transform="translate(-103.88596801973655,-2.1316879765671493)"><circle class="b-outline" cx="0" cy="0" r="25" fill="#57C7E3" stroke="#23b3d7" stroke-width="2px"/><text class="caption" text-anchor="middle" pointer-events="none" x="0" y="5" font-size="10px" fill="#2A2C34" font-family="Helvetica Neue, Helvetica, Arial, sans-serif"> 1328</text></g></g></svg>