<svg xmlns="http://www.w3.org/2000/svg" width="402.5296630859375" height="397.21588134765625" viewBox="-182.7679901123047 -174.73001098632812 402.5296630859375 397.21588134765625"><title>Neo4j Graph Visualization</title><desc>Created using Neo4j (http://www.neo4j.com/)</desc><g class="layer relationships"><g class="relationship" transform="translate(9.938883808193182 15.889448648529093) rotate(465.55953363329587)"><path class="b-outline" fill="#A5ABB6" stroke="none" d="M 25 0.5 L 25.238301936837843 0.5 L 25.238301936837843 -0.5 L 25 -0.5 Z M 110.22267693683784 0.5 L 110.46097887367569 0.5 L 110.46097887367569 3.5 L 117.46097887367569 0 L 110.46097887367569 -3.5 L 110.46097887367569 -0.5 L 110.22267693683784 -0.5 Z"/><text text-anchor="middle" pointer-events="none" font-size="8px" fill="#000000" x="67.73048943683784" y="3" transform="rotate(180 67.73048943683784 0)" font-family="Helvetica Neue, Helvetica, Arial, sans-serif">LOCATION_IN_AREA</text></g><g class="relationship" transform="translate(113.5663803048684 110.85165043911252) rotate(222.5015316191388)"><path class="b-outline" fill="#A5ABB6" stroke="none" d="M 25 0.5 L 33.628478530465074 0.5 L 33.628478530465074 -0.5 L 25 -0.5 Z M 99.92925978046507 0.5 L 108.55773831093015 0.5 L 108.55773831093015 3.5 L 115.55773831093015 0 L 108.55773831093015 -3.5 L 108.55773831093015 -0.5 L 99.92925978046507 -0.5 Z"/><text text-anchor="middle" pointer-events="none" font-size="8px" fill="#000000" x="66.77886915546507" y="3" transform="rotate(180 66.77886915546507 0)" font-family="Helvetica Neue, Helvetica, Arial, sans-serif">OCCURRED_AT</text></g><g class="relationship" transform="translate(190.76166538408825 50.73331518193448) rotate(190.90699261288557)"><path class="b-outline" fill="#A5ABB6" stroke="none" d="M 25 0.5 L 55.424271160750834 0.5 L 55.424271160750834 -0.5 L 25 -0.5 Z M 121.72505241075083 0.5 L 152.14932357150167 0.5 L 152.14932357150167 3.5 L 159.14932357150167 0 L 152.14932357150167 -3.5 L 152.14932357150167 -0.5 L 121.72505241075083 -0.5 Z"/><text text-anchor="middle" pointer-events="none" font-size="8px" fill="#000000" x="88.57466178575083" y="3" transform="rotate(180 88.57466178575083 0)" font-family="Helvetica Neue, Helvetica, Arial, sans-serif">OCCURRED_AT</text></g><g class="relationship" transform="translate(146.7992482911904 -36.88188385166197) rotate(518.9140984480727)"><path class="b-outline" fill="#A5ABB6" stroke="none" d="M 25 0.5 L 36.690547636424924 0.5 L 36.690547636424924 -0.5 L 25 -0.5 Z M 102.99132888642492 0.5 L 114.68187652284985 0.5 L 114.68187652284985 3.5 L 121.68187652284985 0 L 114.68187652284985 -3.5 L 114.68187652284985 -0.5 L 102.99132888642492 -0.5 Z"/><text text-anchor="middle" pointer-events="none" font-size="8px" fill="#000000" x="69.84093826142492" y="3" transform="rotate(180 69.84093826142492 0)" font-family="Helvetica Neue, Helvetica, Arial, sans-serif">OCCURRED_AT</text></g><g class="relationship" transform="translate(111.53205126422326 -129.1334650766923) rotate(485.0124659199496)"><path class="b-outline" fill="#A5ABB6" stroke="none" d="M 25 0.5 L 51.88324306737418 0.5 L 51.88324306737418 -0.5 L 25 -0.5 Z M 118.18402431737418 0.5 L 145.06726738474836 0.5 L 145.06726738474836 3.5 L 152.06726738474836 0 L 145.06726738474836 -3.5 L 145.06726738474836 -0.5 L 118.18402431737418 -0.5 Z"/><text text-anchor="middle" pointer-events="none" font-size="8px" fill="#000000" x="85.03363369237418" y="3" transform="rotate(180 85.03363369237418 0)" font-family="Helvetica Neue, Helvetica, Arial, sans-serif">OCCURRED_AT</text></g><g class="relationship" transform="translate(14.569118987956848 -145.73000485259752) rotate(451.6410177294745)"><path class="b-outline" fill="#A5ABB6" stroke="none" d="M 25 0.5 L 44.19249222164078 0.5 L 44.19249222164078 -0.5 L 25 -0.5 Z M 110.49327347164078 0.5 L 129.68576569328155 0.5 L 129.68576569328155 3.5 L 136.68576569328155 0 L 129.68576569328155 -3.5 L 129.68576569328155 -0.5 L 110.49327347164078 -0.5 Z"/><text text-anchor="middle" pointer-events="none" font-size="8px" fill="#000000" x="77.34288284664078" y="3" transform="rotate(180 77.34288284664078 0)" font-family="Helvetica Neue, Helvetica, Arial, sans-serif">OCCURRED_AT</text></g><g class="relationship" transform="translate(-80.52801747236332 -119.5147463383523) rotate(416.2521324534682)"><path class="b-outline" fill="#A5ABB6" stroke="none" d="M 25 0.5 L 44.77220489883378 0.5 L 44.77220489883378 -0.5 L 25 -0.5 Z M 111.07298614883378 0.5 L 130.84519104766756 0.5 L 130.84519104766756 3.5 L 137.84519104766756 0 L 130.84519104766756 -3.5 L 130.84519104766756 -0.5 L 111.07298614883378 -0.5 Z"/><text text-anchor="middle" pointer-events="none" font-size="8px" fill="#000000" x="77.92259552383378" y="3" font-family="Helvetica Neue, Helvetica, Arial, sans-serif">OCCURRED_AT</text></g><g class="relationship" transform="translate(-153.76799647881535 -53.24002373093322) rotate(382.89316243836697)"><path class="b-outline" fill="#A5ABB6" stroke="none" d="M 25 0.5 L 52.201771144942015 0.5 L 52.201771144942015 -0.5 L 25 -0.5 Z M 118.50255239494201 0.5 L 145.70432353988403 0.5 L 145.70432353988403 3.5 L 152.70432353988403 0 L 145.70432353988403 -3.5 L 145.70432353988403 -0.5 L 118.50255239494201 -0.5 Z"/><text text-anchor="middle" pointer-events="none" font-size="8px" fill="#000000" x="85.35216176994201" y="3" font-family="Helvetica Neue, Helvetica, Arial, sans-serif">OCCURRED_AT</text></g><g class="relationship" transform="translate(-133.74834968496737 42.93088272021036) rotate(349.34179853873616)"><path class="b-outline" fill="#A5ABB6" stroke="none" d="M 25 0.5 L 36.45443176308039 0.5 L 36.45443176308039 -0.5 L 25 -0.5 Z M 102.7552130130804 0.5 L 114.20964477616079 0.5 L 114.20964477616079 3.5 L 121.20964477616079 0 L 114.20964477616079 -3.5 L 114.20964477616079 -0.5 L 102.7552130130804 -0.5 Z"/><text text-anchor="middle" pointer-events="none" font-size="8px" fill="#000000" x="69.6048223880804" y="3" font-family="Helvetica Neue, Helvetica, Arial, sans-serif">OCCURRED_AT</text></g><g class="relationship" transform="translate(-125.43326552268391 141.5816399976167) rotate(317.1234871634924)"><path class="b-outline" fill="#A5ABB6" stroke="none" d="M 25 0.5 L 55.713219336657716 0.5 L 55.713219336657716 -0.5 L 25 -0.5 Z M 122.01400058665772 0.5 L 152.72721992331543 0.5 L 152.72721992331543 3.5 L 159.72721992331543 0 L 152.72721992331543 -3.5 L 152.72721992331543 -0.5 L 122.01400058665772 -0.5 Z"/><text text-anchor="middle" pointer-events="none" font-size="8px" fill="#000000" x="88.86360996165772" y="3" font-family="Helvetica Neue, Helvetica, Arial, sans-serif">OCCURRED_AT</text></g><g class="relationship" transform="translate(60.90838439888784 193.48586268779522) rotate(253.9867207255943)"><path class="b-outline" fill="#A5ABB6" stroke="none" d="M 25 0.5 L 55.7324761172581 0.5 L 55.7324761172581 -0.5 L 25 -0.5 Z M 122.0332573672581 0.5 L 152.7657334845162 0.5 L 152.7657334845162 3.5 L 159.7657334845162 0 L 152.7657334845162 -3.5 L 152.7657334845162 -0.5 L 122.0332573672581 -0.5 Z"/><text text-anchor="middle" pointer-events="none" font-size="8px" fill="#000000" x="88.8828667422581" y="3" transform="rotate(180 88.8828667422581 0)" font-family="Helvetica Neue, Helvetica, Arial, sans-serif">OCCURRED_AT</text></g></g><g class="layer nodes"><g class="node" aria-label="graph-node16965" transform="translate(-28.274777861518853,153.12955416961447)"><circle class="b-outline" cx="0" cy="0" r="25" fill="#D9C8AE" stroke="#c0a378" stroke-width="2px"/><text class="caption" text-anchor="middle" pointer-events="none" x="0" y="5" font-size="10px" fill="#2A2C34" font-family="Helvetica Neue, Helvetica, Arial, sans-serif"> BL1</text></g><g class="node" aria-label="graph-node16035" transform="translate(9.938883808193182,15.889448648529093)"><circle class="b-outline" cx="0" cy="0" r="25" fill="#8DCC93" stroke="#5db665" stroke-width="2px"/><text class="caption" text-anchor="middle" pointer-events="none" x="0" y="0" font-size="10px" fill="#2A2C34" font-family="Helvetica Neue, Helvetica, Arial, sans-serif"> Shopping</text><text class="caption" text-anchor="middle" pointer-events="none" x="0" y="10" font-size="10px" fill="#2A2C34" font-family="Helvetica Neue, Helvetica, Arial, sans-serif"> Area</text></g><g class="node" aria-label="graph-node33715" transform="translate(113.5663803048684,110.85165043911252)"><circle class="b-outline" cx="0" cy="0" r="25" fill="#57C7E3" stroke="#23b3d7" stroke-width="2px"/><text class="caption" text-anchor="middle" pointer-events="none" x="0" y="5" font-size="10px" fill="#2A2C34" font-family="Helvetica Neue, Helvetica, Arial, sans-serif"> 9/08/2017</text></g><g class="node" aria-label="graph-node33710" transform="translate(190.76166538408825,50.73331518193448)"><circle class="b-outline" cx="0" cy="0" r="25" fill="#57C7E3" stroke="#23b3d7" stroke-width="2px"/><text class="caption" text-anchor="middle" pointer-events="none" x="0" y="5" font-size="10px" fill="#2A2C34" font-family="Helvetica Neue, Helvetica, Arial, sans-serif"> 17/08/20…</text></g><g class="node" aria-label="graph-node33709" transform="translate(146.7992482911904,-36.88188385166197)"><circle class="b-outline" cx="0" cy="0" r="25" fill="#57C7E3" stroke="#23b3d7" stroke-width="2px"/><text class="caption" text-anchor="middle" pointer-events="none" x="0" y="5" font-size="10px" fill="#2A2C34" font-family="Helvetica Neue, Helvetica, Arial, sans-serif"> 12/08/20…</text></g><g class="node" aria-label="graph-node33712" transform="translate(111.53205126422326,-129.1334650766923)"><circle class="b-outline" cx="0" cy="0" r="25" fill="#57C7E3" stroke="#23b3d7" stroke-width="2px"/><text class="caption" text-anchor="middle" pointer-events="none" x="0" y="5" font-size="10px" fill="#2A2C34" font-family="Helvetica Neue, Helvetica, Arial, sans-serif"> 28/08/20…</text></g><g class="node" aria-label="graph-node33725" transform="translate(14.569118987956848,-145.73000485259752)"><circle class="b-outline" cx="0" cy="0" r="25" fill="#57C7E3" stroke="#23b3d7" stroke-width="2px"/><text class="caption" text-anchor="middle" pointer-events="none" x="0" y="5" font-size="10px" fill="#2A2C34" font-family="Helvetica Neue, Helvetica, Arial, sans-serif"> 2/08/2017</text></g><g class="node" aria-label="graph-node33727" transform="translate(-80.52801747236332,-119.5147463383523)"><circle class="b-outline" cx="0" cy="0" r="25" fill="#57C7E3" stroke="#23b3d7" stroke-width="2px"/><text class="caption" text-anchor="middle" pointer-events="none" x="0" y="5" font-size="10px" fill="#2A2C34" font-family="Helvetica Neue, Helvetica, Arial, sans-serif"> 6/08/2017</text></g><g class="node" aria-label="graph-node33767" transform="translate(-153.76799647881535,-53.24002373093322)"><circle class="b-outline" cx="0" cy="0" r="25" fill="#57C7E3" stroke="#23b3d7" stroke-width="2px"/><text class="caption" text-anchor="middle" pointer-events="none" x="0" y="5" font-size="10px" fill="#2A2C34" font-family="Helvetica Neue, Helvetica, Arial, sans-serif"> 1/08/2017</text></g><g class="node" aria-label="graph-node33768" transform="translate(-133.74834968496737,42.93088272021036)"><circle class="b-outline" cx="0" cy="0" r="25" fill="#57C7E3" stroke="#23b3d7" stroke-width="2px"/><text class="caption" text-anchor="middle" pointer-events="none" x="0" y="5" font-size="10px" fill="#2A2C34" font-family="Helvetica Neue, Helvetica, Arial, sans-serif"> 31/08/20…</text></g><g class="node" aria-label="graph-node33766" transform="translate(-125.43326552268391,141.5816399976167)"><circle class="b-outline" cx="0" cy="0" r="25" fill="#57C7E3" stroke="#23b3d7" stroke-width="2px"/><text class="caption" text-anchor="middle" pointer-events="none" x="0" y="5" font-size="10px" fill="#2A2C34" font-family="Helvetica Neue, Helvetica, Arial, sans-serif"> 7/08/2017</text></g><g class="node" aria-label="graph-node33760" transform="translate(60.90838439888784,193.48586268779522)"><circle class="b-outline" cx="0" cy="0" r="25" fill="#57C7E3" stroke="#23b3d7" stroke-width="2px"/><text class="caption" text-anchor="middle" pointer-events="none" x="0" y="5" font-size="10px" fill="#2A2C34" font-family="Helvetica Neue, Helvetica, Arial, sans-serif"> 17/08/20…</text></g></g></svg>