<svg xmlns="http://www.w3.org/2000/svg" width="774.8118896484375" height="640.7769165039062" viewBox="-481.4256896972656 -248.80516052246094 774.8118896484375 640.7769165039062"><title>Neo4j Graph Visualization</title><desc>Created using Neo4j (http://www.neo4j.com/)</desc><g class="layer relationships"><g class="relationship" transform="translate(16.896195651066467 14.908107979705843) rotate(519.3634914609634)"><path class="b-outline" fill="#A5ABB6" stroke="none" d="M 25 0.5 L 32.08769915340848 0.5 L 32.08769915340848 -0.5 L 25 -0.5 Z M 117.07207415340848 0.5 L 124.15977330681696 0.5 L 124.15977330681696 3.5 L 131.15977330681696 0 L 124.15977330681696 -3.5 L 124.15977330681696 -0.5 L 117.07207415340848 -0.5 Z"/><text text-anchor="middle" pointer-events="none" font-size="8px" fill="#000000" x="74.57988665340848" y="3" transform="rotate(180 74.57988665340848 0)" font-family="Helvetica Neue, Helvetica, Arial, sans-serif">LOCATION_IN_AREA</text></g><g class="relationship" transform="translate(115.9956083532475 142.6772306749296) rotate(232.20237369245535)"><path class="b-outline" fill="#A5ABB6" stroke="none" d="M 25 0.5 L 44.19768033563632 0.5 L 44.19768033563632 -0.5 L 25 -0.5 Z M 110.49846158563632 0.5 L 129.69614192127264 0.5 L 129.69614192127264 3.5 L 136.69614192127264 0 L 129.69614192127264 -3.5 L 129.69614192127264 -0.5 L 110.49846158563632 -0.5 Z"/><text text-anchor="middle" pointer-events="none" font-size="8px" fill="#000000" x="77.34807096063632" y="3" transform="rotate(180 77.34807096063632 0)" font-family="Helvetica Neue, Helvetica, Arial, sans-serif">OCCURRED_AT</text></g><g class="relationship" transform="translate(-112.93304520154092 -52.52388799458867) rotate(457.5860992808904)"><path class="b-outline" fill="#A5ABB6" stroke="none" d="M 25 0.5 L 27.788670801178966 0.5 L 27.788670801178966 -0.5 L 25 -0.5 Z M 88.76132705117897 0.5 L 91.54999785235793 0.5 L 91.54999785235793 3.5 L 98.54999785235793 0 L 91.54999785235793 -3.5 L 91.54999785235793 -0.5 L 88.76132705117897 -0.5 Z"/><text text-anchor="middle" pointer-events="none" font-size="8px" fill="#000000" x="58.27499892617897" y="3" transform="rotate(180 58.27499892617897 0)" font-family="Helvetica Neue, Helvetica, Arial, sans-serif">LOCATION_I…</text></g><g class="relationship" transform="translate(-34.81122252034186 99.49738069019062) rotate(242.8019371003653)"><path class="b-outline" fill="#A5ABB6" stroke="none" d="M 25 0.5 L 48.809373755032325 0.5 L 48.809373755032325 -0.5 L 25 -0.5 Z M 115.11015500503233 0.5 L 138.91952876006465 0.5 L 138.91952876006465 3.5 L 145.91952876006465 0 L 138.91952876006465 -3.5 L 138.91952876006465 -0.5 L 115.11015500503233 -0.5 Z"/><text text-anchor="middle" pointer-events="none" font-size="8px" fill="#000000" x="81.95976438003233" y="3" transform="rotate(180 81.95976438003233 0)" font-family="Helvetica Neue, Helvetica, Arial, sans-serif">OCCURRED_AT</text></g><g class="relationship" transform="translate(111.99145033820733 43.34627362565904) rotate(533.7080067579324)"><path class="b-outline" fill="#A5ABB6" stroke="none" d="M 25 0.5 L 75.35631193803519 0.5 L 75.35631193803519 -0.5 L 25 -0.5 Z M 160.3406869380352 0.5 L 210.69699887607038 0.5 L 210.69699887607038 3.5 L 217.69699887607038 0 L 210.69699887607038 -3.5 L 210.69699887607038 -0.5 L 160.3406869380352 -0.5 Z"/><text text-anchor="middle" pointer-events="none" font-size="8px" fill="#000000" x="117.84849943803519" y="3" transform="rotate(180 117.84849943803519 0)" font-family="Helvetica Neue, Helvetica, Arial, sans-serif">LOCATION_IN_AREA</text></g><g class="relationship" transform="translate(264.3861563899877 56.041700507398886) rotate(184.76209891110102)"><path class="b-outline" fill="#A5ABB6" stroke="none" d="M 25 0.5 L 39.81090725882838 0.5 L 39.81090725882838 -0.5 L 25 -0.5 Z M 106.11168850882838 0.5 L 120.92259576765676 0.5 L 120.92259576765676 3.5 L 127.92259576765676 0 L 120.92259576765676 -3.5 L 120.92259576765676 -0.5 L 106.11168850882838 -0.5 Z"/><text text-anchor="middle" pointer-events="none" font-size="8px" fill="#000000" x="72.96129788382838" y="3" transform="rotate(180 72.96129788382838 0)" font-family="Helvetica Neue, Helvetica, Arial, sans-serif">OCCURRED_AT</text></g><g class="relationship" transform="translate(221.07499338764347 -62.88229636139505) rotate(495.75968007128097)"><path class="b-outline" fill="#A5ABB6" stroke="none" d="M 25 0.5 L 39.480628752308746 0.5 L 39.480628752308746 -0.5 L 25 -0.5 Z M 105.78141000230875 0.5 L 120.26203875461749 0.5 L 120.26203875461749 3.5 L 127.26203875461749 0 L 120.26203875461749 -3.5 L 120.26203875461749 -0.5 L 105.78141000230875 -0.5 Z"/><text text-anchor="middle" pointer-events="none" font-size="8px" fill="#000000" x="72.63101937730875" y="3" transform="rotate(180 72.63101937730875 0)" font-family="Helvetica Neue, Helvetica, Arial, sans-serif">OCCURRED_AT</text></g><g class="relationship" transform="translate(-17.13980016287134 -78.89071114915546) rotate(486.987290137041)"><path class="b-outline" fill="#A5ABB6" stroke="none" d="M 25 0.5 L 47.173335685104306 0.5 L 47.173335685104306 -0.5 L 25 -0.5 Z M 132.1577106851043 0.5 L 154.3310463702086 0.5 L 154.3310463702086 3.5 L 161.3310463702086 0 L 154.3310463702086 -3.5 L 154.3310463702086 -0.5 L 132.1577106851043 -0.5 Z"/><text text-anchor="middle" pointer-events="none" font-size="8px" fill="#000000" x="89.6655231851043" y="3" transform="rotate(180 89.6655231851043 0)" font-family="Helvetica Neue, Helvetica, Arial, sans-serif">LOCATION_IN_AREA</text></g><g class="relationship" transform="translate(38.776126277816 -219.80514527568621) rotate(471.6435569978744)"><path class="b-outline" fill="#A5ABB6" stroke="none" d="M 25 0.5 L 39.15110766975789 0.5 L 39.15110766975789 -0.5 L 25 -0.5 Z M 105.45188891975789 0.5 L 119.60299658951578 0.5 L 119.60299658951578 3.5 L 126.60299658951578 0 L 119.60299658951578 -3.5 L 119.60299658951578 -0.5 L 105.45188891975789 -0.5 Z"/><text text-anchor="middle" pointer-events="none" font-size="8px" fill="#000000" x="72.30149829475789" y="3" transform="rotate(180 72.30149829475789 0)" font-family="Helvetica Neue, Helvetica, Arial, sans-serif">OCCURRED_AT</text></g><g class="relationship" transform="translate(-256.01224830962224 -31.630519466168465) rotate(398.7039747874135)"><path class="b-outline" fill="#A5ABB6" stroke="none" d="M 25 0.5 L 35.229458603999404 0.5 L 35.229458603999404 -0.5 L 25 -0.5 Z M 120.2138336039994 0.5 L 130.4432922079988 0.5 L 130.4432922079988 3.5 L 137.4432922079988 0 L 130.4432922079988 -3.5 L 130.4432922079988 -0.5 L 120.2138336039994 -0.5 Z"/><text text-anchor="middle" pointer-events="none" font-size="8px" fill="#000000" x="77.7216461039994" y="3" font-family="Helvetica Neue, Helvetica, Arial, sans-serif">LOCATION_IN_AREA</text></g><g class="relationship" transform="translate(-215.43223825830992 120.00093302590997) rotate(255.01745801232067)"><path class="b-outline" fill="#A5ABB6" stroke="none" d="M 25 0.5 L 41.83342076407254 0.5 L 41.83342076407254 -0.5 L 25 -0.5 Z M 108.13420201407254 0.5 L 124.96762277814508 0.5 L 124.96762277814508 3.5 L 131.96762277814508 0 L 124.96762277814508 -3.5 L 124.96762277814508 -0.5 L 108.13420201407254 -0.5 Z"/><text text-anchor="middle" pointer-events="none" font-size="8px" fill="#000000" x="74.98381138907254" y="3" transform="rotate(180 74.98381138907254 0)" font-family="Helvetica Neue, Helvetica, Arial, sans-serif">OCCURRED_AT</text></g><g class="relationship" transform="translate(-225.35401115617697 -179.09222314139143) rotate(461.7448449273147)"><path class="b-outline" fill="#A5ABB6" stroke="none" d="M 25 0.5 L 38.65711490425677 0.5 L 38.65711490425677 -0.5 L 25 -0.5 Z M 104.95789615425677 0.5 L 118.61501105851355 0.5 L 118.61501105851355 3.5 L 125.61501105851355 0 L 118.61501105851355 -3.5 L 118.61501105851355 -0.5 L 104.95789615425677 -0.5 Z"/><text text-anchor="middle" pointer-events="none" font-size="8px" fill="#000000" x="71.80750552925677" y="3" transform="rotate(180 71.80750552925677 0)" font-family="Helvetica Neue, Helvetica, Arial, sans-serif">OCCURRED_AT</text></g><g class="relationship" transform="translate(-346.6583312963672 -147.25634265350956) rotate(411.9049541153429)"><path class="b-outline" fill="#A5ABB6" stroke="none" d="M 25 0.5 L 36.81055707612572 0.5 L 36.81055707612572 -0.5 L 25 -0.5 Z M 103.11133832612572 0.5 L 114.92189540225144 0.5 L 114.92189540225144 3.5 L 121.92189540225144 0 L 114.92189540225144 -3.5 L 114.92189540225144 -0.5 L 103.11133832612572 -0.5 Z"/><text text-anchor="middle" pointer-events="none" font-size="8px" fill="#000000" x="69.96094770112572" y="3" font-family="Helvetica Neue, Helvetica, Arial, sans-serif">OCCURRED_AT</text></g><g class="relationship" transform="translate(-309.5427879910631 88.69204320880935) rotate(354.0637854538129)"><path class="b-outline" fill="#A5ABB6" stroke="none" d="M 25 0.5 L 44.64342167498536 0.5 L 44.64342167498536 -0.5 L 25 -0.5 Z M 129.62779667498535 0.5 L 149.27121834997072 0.5 L 149.27121834997072 3.5 L 156.27121834997072 0 L 149.27121834997072 -3.5 L 149.27121834997072 -0.5 L 129.62779667498535 -0.5 Z"/><text text-anchor="middle" pointer-events="none" font-size="8px" fill="#000000" x="87.13560917498536" y="3" font-family="Helvetica Neue, Helvetica, Arial, sans-serif">LOCATION_IN_AREA</text></g><g class="relationship" transform="translate(-452.4256981354837 69.69004109504426) rotate(367.5753160910763)"><path class="b-outline" fill="#A5ABB6" stroke="none" d="M 25 0.5 L 35.42006465257907 0.5 L 35.42006465257907 -0.5 L 25 -0.5 Z M 101.72084590257907 0.5 L 112.14091055515814 0.5 L 112.14091055515814 3.5 L 119.14091055515814 0 L 112.14091055515814 -3.5 L 112.14091055515814 -0.5 L 101.72084590257907 -0.5 Z"/><text text-anchor="middle" pointer-events="none" font-size="8px" fill="#000000" x="68.57045527757907" y="3" font-family="Helvetica Neue, Helvetica, Arial, sans-serif">OCCURRED_AT</text></g><g class="relationship" transform="translate(-85.75133861796195 240.47050014772927) rotate(255.69185961670632)"><path class="b-outline" fill="#A5ABB6" stroke="none" d="M 25 0.5 L 42.000154362762586 0.5 L 42.000154362762586 -0.5 L 25 -0.5 Z M 126.98452936276259 0.5 L 143.98468372552517 0.5 L 143.98468372552517 3.5 L 150.98468372552517 0 L 143.98468372552517 -3.5 L 143.98468372552517 -0.5 L 126.98452936276259 -0.5 Z"/><text text-anchor="middle" pointer-events="none" font-size="8px" fill="#000000" x="84.49234186276259" y="3" transform="rotate(180 84.49234186276259 0)" font-family="Helvetica Neue, Helvetica, Arial, sans-serif">LOCATION_IN_AREA</text></g><g class="relationship" transform="translate(3.4807039470082053 362.9717388679294) rotate(233.9297512097267)"><path class="b-outline" fill="#A5ABB6" stroke="none" d="M 25 0.5 L 39.12709763553174 0.5 L 39.12709763553174 -0.5 L 25 -0.5 Z M 105.42787888553174 0.5 L 119.55497652106348 0.5 L 119.55497652106348 3.5 L 126.55497652106348 0 L 119.55497652106348 -3.5 L 119.55497652106348 -0.5 L 105.42787888553174 -0.5 Z"/><text text-anchor="middle" pointer-events="none" font-size="8px" fill="#000000" x="72.27748826053174" y="3" transform="rotate(180 72.27748826053174 0)" font-family="Helvetica Neue, Helvetica, Arial, sans-serif">OCCURRED_AT</text></g></g><g class="layer nodes"><g class="node" aria-label="graph-node16983" transform="translate(-129.2436098914604,69.94475063920036)"><circle class="b-outline" cx="0" cy="0" r="25" fill="#D9C8AE" stroke="#c0a378" stroke-width="2px"/><text class="caption" text-anchor="middle" pointer-events="none" x="0" y="5" font-size="10px" fill="#2A2C34" font-family="Helvetica Neue, Helvetica, Arial, sans-serif"> M14</text></g><g class="node" aria-label="graph-node40935" transform="translate(115.9956083532475,142.6772306749296)"><circle class="b-outline" cx="0" cy="0" r="25" fill="#57C7E3" stroke="#23b3d7" stroke-width="2px"/><text class="caption" text-anchor="middle" pointer-events="none" x="0" y="5" font-size="10px" fill="#2A2C34" font-family="Helvetica Neue, Helvetica, Arial, sans-serif"> 15/08/20…</text></g><g class="node" aria-label="graph-node40936" transform="translate(-34.81122252034186,99.49738069019062)"><circle class="b-outline" cx="0" cy="0" r="25" fill="#57C7E3" stroke="#23b3d7" stroke-width="2px"/><text class="caption" text-anchor="middle" pointer-events="none" x="0" y="5" font-size="10px" fill="#2A2C34" font-family="Helvetica Neue, Helvetica, Arial, sans-serif"> 9/08/2017</text></g><g class="node" aria-label="graph-node40414" transform="translate(264.3861563899877,56.041700507398886)"><circle class="b-outline" cx="0" cy="0" r="25" fill="#57C7E3" stroke="#23b3d7" stroke-width="2px"/><text class="caption" text-anchor="middle" pointer-events="none" x="0" y="5" font-size="10px" fill="#2A2C34" font-family="Helvetica Neue, Helvetica, Arial, sans-serif"> 27/08/20…</text></g><g class="node" aria-label="graph-node40418" transform="translate(221.07499338764347,-62.88229636139505)"><circle class="b-outline" cx="0" cy="0" r="25" fill="#57C7E3" stroke="#23b3d7" stroke-width="2px"/><text class="caption" text-anchor="middle" pointer-events="none" x="0" y="5" font-size="10px" fill="#2A2C34" font-family="Helvetica Neue, Helvetica, Arial, sans-serif"> 29/08/20…</text></g><g class="node" aria-label="graph-node40419" transform="translate(38.776126277816,-219.80514527568621)"><circle class="b-outline" cx="0" cy="0" r="25" fill="#57C7E3" stroke="#23b3d7" stroke-width="2px"/><text class="caption" text-anchor="middle" pointer-events="none" x="0" y="5" font-size="10px" fill="#2A2C34" font-family="Helvetica Neue, Helvetica, Arial, sans-serif"> 20/08/20…</text></g><g class="node" aria-label="graph-node40925" transform="translate(-215.43223825830992,120.00093302590997)"><circle class="b-outline" cx="0" cy="0" r="25" fill="#57C7E3" stroke="#23b3d7" stroke-width="2px"/><text class="caption" text-anchor="middle" pointer-events="none" x="0" y="5" font-size="10px" fill="#2A2C34" font-family="Helvetica Neue, Helvetica, Arial, sans-serif"> 4/08/2017</text></g><g class="node" aria-label="graph-node40926" transform="translate(-225.35401115617697,-179.09222314139143)"><circle class="b-outline" cx="0" cy="0" r="25" fill="#57C7E3" stroke="#23b3d7" stroke-width="2px"/><text class="caption" text-anchor="middle" pointer-events="none" x="0" y="5" font-size="10px" fill="#2A2C34" font-family="Helvetica Neue, Helvetica, Arial, sans-serif"> 26/08/20…</text></g><g class="node" aria-label="graph-node40927" transform="translate(-346.6583312963672,-147.25634265350956)"><circle class="b-outline" cx="0" cy="0" r="25" fill="#57C7E3" stroke="#23b3d7" stroke-width="2px"/><text class="caption" text-anchor="middle" pointer-events="none" x="0" y="5" font-size="10px" fill="#2A2C34" font-family="Helvetica Neue, Helvetica, Arial, sans-serif"> 19/08/20…</text></g><g class="node" aria-label="graph-node40928" transform="translate(-452.4256981354837,69.69004109504426)"><circle class="b-outline" cx="0" cy="0" r="25" fill="#57C7E3" stroke="#23b3d7" stroke-width="2px"/><text class="caption" text-anchor="middle" pointer-events="none" x="0" y="5" font-size="10px" fill="#2A2C34" font-family="Helvetica Neue, Helvetica, Arial, sans-serif"> 9/08/2017</text></g><g class="node" aria-label="graph-node40922" transform="translate(3.4807039470082053,362.9717388679294)"><circle class="b-outline" cx="0" cy="0" r="25" fill="#57C7E3" stroke="#23b3d7" stroke-width="2px"/><text class="caption" text-anchor="middle" pointer-events="none" x="0" y="5" font-size="10px" fill="#2A2C34" font-family="Helvetica Neue, Helvetica, Arial, sans-serif"> 4/08/2017</text></g><g class="node" aria-label="graph-node6559" transform="translate(16.896195651066467,14.908107979705843)"><circle class="b-outline" cx="0" cy="0" r="25" fill="#8DCC93" stroke="#5db665" stroke-width="2px"/><text class="caption" text-anchor="middle" pointer-events="none" x="0" y="0" font-size="10px" fill="#2A2C34" font-family="Helvetica Neue, Helvetica, Arial, sans-serif"> 28 Booth</text><text class="caption" text-anchor="middle" pointer-events="none" x="0" y="10" font-size="10px" fill="#2A2C34" font-family="Helvetica Neue, Helvetica, Arial, sans-serif"> Avenue</text></g><g class="node" aria-label="graph-node6560" transform="translate(-112.93304520154092,-52.52388799458867)"><circle class="b-outline" cx="0" cy="0" r="25" fill="#8DCC93" stroke="#5db665" stroke-width="2px"/><text class="caption" text-anchor="middle" pointer-events="none" x="0" y="0" font-size="10px" fill="#2A2C34" font-family="Helvetica Neue, Helvetica, Arial, sans-serif"> 157 Lyth</text><text class="caption" text-anchor="middle" pointer-events="none" x="0" y="10" font-size="10px" fill="#2A2C34" font-family="Helvetica Neue, Helvetica, Arial, sans-serif"> Street</text></g><g class="node" aria-label="graph-node6306" transform="translate(111.99145033820733,43.34627362565904)"><circle class="b-outline" cx="0" cy="0" r="25" fill="#8DCC93" stroke="#5db665" stroke-width="2px"/><text class="caption" text-anchor="middle" pointer-events="none" x="0" y="0" font-size="10px" fill="#2A2C34" font-family="Helvetica Neue, Helvetica, Arial, sans-serif"> 164 Yew</text><text class="caption" text-anchor="middle" pointer-events="none" x="0" y="10" font-size="10px" fill="#2A2C34" font-family="Helvetica Neue, Helvetica, Arial, sans-serif">Ro…</text></g><g class="node" aria-label="graph-node6307" transform="translate(-17.13980016287134,-78.89071114915546)"><circle class="b-outline" cx="0" cy="0" r="25" fill="#8DCC93" stroke="#5db665" stroke-width="2px"/><text class="caption" text-anchor="middle" pointer-events="none" x="0" y="-5" font-size="10px" fill="#2A2C34" font-family="Helvetica Neue, Helvetica, Arial, sans-serif"> 194</text><text class="caption" text-anchor="middle" pointer-events="none" x="0" y="5" font-size="10px" fill="#2A2C34" font-family="Helvetica Neue, Helvetica, Arial, sans-serif"> Holford</text><text class="caption" text-anchor="middle" pointer-events="none" x="0" y="15" font-size="10px" fill="#2A2C34" font-family="Helvetica Neue, Helvetica, Arial, sans-serif"> Ave…</text></g><g class="node" aria-label="graph-node6555" transform="translate(-256.01224830962224,-31.630519466168465)"><circle class="b-outline" cx="0" cy="0" r="25" fill="#8DCC93" stroke="#5db665" stroke-width="2px"/><text class="caption" text-anchor="middle" pointer-events="none" x="0" y="0" font-size="10px" fill="#2A2C34" font-family="Helvetica Neue, Helvetica, Arial, sans-serif"> 15 Cedar</text><text class="caption" text-anchor="middle" pointer-events="none" x="0" y="10" font-size="10px" fill="#2A2C34" font-family="Helvetica Neue, Helvetica, Arial, sans-serif"> Grove</text></g><g class="node" aria-label="graph-node6556" transform="translate(-309.5427879910631,88.69204320880935)"><circle class="b-outline" cx="0" cy="0" r="25" fill="#8DCC93" stroke="#5db665" stroke-width="2px"/><text class="caption" text-anchor="middle" pointer-events="none" x="0" y="-5" font-size="10px" fill="#2A2C34" font-family="Helvetica Neue, Helvetica, Arial, sans-serif"> 79</text><text class="caption" text-anchor="middle" pointer-events="none" x="0" y="5" font-size="10px" fill="#2A2C34" font-family="Helvetica Neue, Helvetica, Arial, sans-serif"> Ladybarn</text><text class="caption" text-anchor="middle" pointer-events="none" x="0" y="15" font-size="10px" fill="#2A2C34" font-family="Helvetica Neue, Helvetica, Arial, sans-serif"> Lane</text></g><g class="node" aria-label="graph-node6553" transform="translate(-85.75133861796195,240.47050014772927)"><circle class="b-outline" cx="0" cy="0" r="25" fill="#8DCC93" stroke="#5db665" stroke-width="2px"/><text class="caption" text-anchor="middle" pointer-events="none" x="0" y="-5" font-size="10px" fill="#2A2C34" font-family="Helvetica Neue, Helvetica, Arial, sans-serif"> 130</text><text class="caption" text-anchor="middle" pointer-events="none" x="0" y="5" font-size="10px" fill="#2A2C34" font-family="Helvetica Neue, Helvetica, Arial, sans-serif"> Birchacre</text><text class="caption" text-anchor="middle" pointer-events="none" x="0" y="15" font-size="10px" fill="#2A2C34" font-family="Helvetica Neue, Helvetica, Arial, sans-serif"> Gro…</text></g></g></svg>